
<svg version="1.1" xmlns="http://www.w3.org/2000/svg" xmlns:xlink="http://www.w3.org/1999/xlink" x="0px" y="0px"
	 viewBox="0 0 694 228" style="enable-background:new 0 0 694 228;" xml:space="preserve">
<g id="day_x5F_logo">
	<path d="M117.7,213.5H22.9c-5,0-8.1-3.1-8.1-8.1v-13.8c0-5,3.1-8.1,8.1-8.1h28.2c1.3,0,1.8-0.5,1.8-1.8v-59.4
		c0-1.3-0.5-1.8-1.8-1.8h-4.2c-5.3,0-9.1-1.8-11-5.2c-1.9-3.5-1.3-8.4,1.6-13l15-23.1c4-6,8.4-7.3,11.5-7.3h15.9
		c5,0,8.1,3.1,8.1,8.1v101.7c0,1.3,0.5,1.8,1.8,1.8h27.9c5,0,8.1,3.1,8.1,8.1v13.8C125.8,210.4,122.7,213.5,117.7,213.5z
		 M22.9,186.5c-3.4,0-5.1,1.7-5.1,5.1v13.8c0,3.4,1.7,5.1,5.1,5.1h94.8c3.4,0,5.1-1.7,5.1-5.1v-13.8c0-3.4-1.7-5.1-5.1-5.1H89.8
		c-2.9,0-4.8-1.9-4.8-4.8V80c0-3.4-1.7-5.1-5.1-5.1H64c-3.3,0-6.4,2.1-9,5.9l-15,23.1c-2.3,3.7-2.9,7.4-1.5,10
		c1.3,2.4,4.2,3.6,8.3,3.6h4.2c2.9,0,4.8,1.9,4.8,4.8v59.4c0,2.9-1.9,4.8-4.8,4.8H22.9z"/>
	<path d="M256.3,213.5h-94.8c-5,0-8.1-3.1-8.1-8.1c0-20.3,4.5-34.2,15.2-46.2c11.1-12.6,29.1-23.2,52.8-35.2c4-2.1,5.8-5,5.8-9.2
		c0-6.2-5.7-15-18.3-15c-11.5,0-17.4,6.3-23.6,17.2c-2.5,3.9-6.6,4.6-11.1,2.1l-12.9-8.1c-3.3-2.2-4.2-6.7-2.4-10.9
		c6.8-15.1,23.5-31.2,50-31.2c29.8,0,52.2,19.7,52.2,45.9c0,16.6-7,28.1-22.1,36.1c-29.7,15.7-45.2,24.2-46.3,31
		c0,0.4-0.1,0.9,0.2,1.2c0.2,0.3,0.7,0.4,1.3,0.4h62.1c5,0,8.1,3.1,8.1,8.1v13.8C264.4,210.4,261.3,213.5,256.3,213.5z M208.9,96.8
		c13.3,0,21.3,9.2,21.3,18c0,5.3-2.4,9.2-7.4,11.8c-49.8,25.4-66.4,40.3-66.4,78.8c0,3.4,1.7,5.1,5.1,5.1h94.8
		c3.4,0,5.1-1.7,5.1-5.1v-13.8c0-3.4-1.7-5.1-5.1-5.1h-62.1c-1.9,0-3-0.8-3.6-1.4c-0.6-0.6-1.2-1.8-0.9-3.6
		c1.3-8.3,15.6-16.2,47.9-33.2c14.2-7.6,20.5-17.9,20.5-33.5c0-24.5-21.2-42.9-49.2-42.9c-25,0-40.8,15.2-47.2,29.4
		c-1.3,2.8-0.7,5.8,1.3,7.1l12.9,8.1c3,1.8,5.4,1.4,6.9-1C189.4,104,196.1,96.8,208.9,96.8z"/>
	<path d="M357.1,213.5h-19.2c-5,0-8.1-3.1-8.1-8.1v-13.8c0-5,3.1-8.1,8.1-8.1h19.2c5,0,8.1,3.1,8.1,8.1v13.8
		C365.2,210.4,362.1,213.5,357.1,213.5z M337.9,186.5c-3.4,0-5.1,1.7-5.1,5.1v13.8c0,3.4,1.7,5.1,5.1,5.1h19.2
		c3.4,0,5.1-1.7,5.1-5.1v-13.8c0-3.4-1.7-5.1-5.1-5.1H337.9z"/>
	<path d="M533.5,213.5h-94.8c-5,0-8.1-3.1-8.1-8.1c0-20.3,4.5-34.2,15.2-46.2c11.1-12.6,29.1-23.2,52.8-35.2c4-2.1,5.8-5,5.8-9.2
		c0-6.2-5.7-15-18.3-15c-11.5,0-17.4,6.3-23.6,17.2c-2.5,3.9-6.6,4.6-11.1,2.1l-12.9-8.1c-3.3-2.2-4.2-6.7-2.4-10.9
		c6.8-15.1,23.5-31.2,50-31.2c29.8,0,52.2,19.7,52.2,45.9c0,16.6-7,28.1-22.1,36.1c-29.7,15.7-45.2,24.2-46.3,31
		c0,0.4-0.1,0.9,0.2,1.2c0.2,0.3,0.7,0.4,1.3,0.4h62.1c5,0,8.1,3.1,8.1,8.1v13.8C541.6,210.4,538.5,213.5,533.5,213.5z M486.1,96.8
		c13.3,0,21.3,9.2,21.3,18c0,5.3-2.4,9.2-7.4,11.8c-49.8,25.4-66.4,40.3-66.4,78.8c0,3.4,1.7,5.1,5.1,5.1h94.8
		c3.4,0,5.1-1.7,5.1-5.1v-13.8c0-3.4-1.7-5.1-5.1-5.1h-62.1c-1.9,0-3-0.8-3.6-1.4c-0.6-0.6-1.2-1.8-0.9-3.6
		c1.3-8.3,15.6-16.2,47.9-33.2c14.2-7.6,20.5-17.9,20.5-33.5c0-24.5-21.2-42.9-49.2-42.9c-25,0-40.8,15.2-47.2,29.4
		c-1.3,2.8-0.7,5.8,1.3,7.1l12.9,8.1c3,1.8,5.4,1.4,6.9-1C466.6,104,473.2,96.8,486.1,96.8z"/>
	<path d="M624.7,216.5c-15.7,0-29.9-5.5-40.2-15.5c-9.9-9.6-15.3-22.4-15.3-36.1v-30c0-29.7,11.6-59.3,22.4-77
		c10.9-17.5,27.7-34.7,37.7-41.3c4.1-2.7,8.5-4.1,12.8-4.1h16.5c3.3,0,5.9,1.7,6.9,4.4c1.1,2.9,0.1,6.3-2.3,8.4
		c-16.8,14.9-22.4,20.6-30.7,30.1c-5.6,6.5-13.7,18.8-16.2,25.9c-0.4,1.4-0.2,2.2-0.1,2.4c0.1,0.1,0.4,0.2,0.9,0.1
		c2.1-0.3,4.5-0.6,7.7-0.6c15.7,0,29.9,5.5,40.2,15.5c9.9,9.6,15.3,22.4,15.3,36.1v30c0,13.7-5.4,26.5-15.3,36.1
		C654.7,211,640.4,216.5,624.7,216.5z M642.1,15.5c-4.7,0-8.7,2-11.2,3.6c-9.5,6.2-26.3,23.4-36.8,40.3c-10.6,17.4-22,46.3-22,75.4
		v30c0,12.9,5.1,25,14.4,34c9.7,9.4,23.2,14.6,38.1,14.6s28.4-5.2,38.1-14.6c9.3-9,14.4-21.1,14.4-34v-30c0-12.9-5.1-25-14.4-34
		c-9.7-9.4-23.2-14.6-38.1-14.6c-2.9,0-5.3,0.3-7.3,0.6c-2,0.3-3.1-0.6-3.6-1.2c-0.7-0.8-1.3-2.4-0.5-5.2c2.7-7.5,11-20.2,16.8-26.9
		c8.5-9.6,14.1-15.4,31-30.4c1.5-1.3,2.1-3.4,1.5-5.1c-0.6-1.6-2-2.5-4.1-2.5H642.1z"/>
	<path d="M624.7,188c-15.2,0-23.4-11.9-23.4-23.1v-30c0-11.2,8.2-23.1,23.4-23.1s23.4,11.9,23.4,23.1v30
		C648.1,176.1,639.9,188,624.7,188z M624.7,114.8c-13.3,0-20.4,10.4-20.4,20.1v30c0,9.7,7.1,20.1,20.4,20.1s20.4-10.4,20.4-20.1v-30
		C645.1,125.1,638,114.8,624.7,114.8z"/>
</g>
<g id="snow3">
	<path d="M86.5,181.7c0.2,0.9,0.5,1.8,1.2,2.2c0.7,0.4,1.4,0.5,2.3,0.4c1.8-0.2,3.7-0.3,5.5-0.4c3.7-0.2,7.3-0.3,11-0.3
		c3.7,0,7.3,0.1,11,0.3c0.9,0.1,2,0.2,3,0.5c1,0.4,1.9,0.9,2.6,1.7c1.4,1.6,1.7,3.7,1.3,5.5c-0.3-1.8-1-3.5-2.4-4.5
		c-1.3-1-2.9-1.1-4.6-1c-3.7,0.2-7.3,0.3-11,0.3c-3.7,0-7.3-0.1-11-0.3c-1.8-0.1-3.7-0.3-5.5-0.4c-1-0.1-2.1-0.4-2.8-1.2
		C86.5,183.6,86.4,182.6,86.5,181.7z"/>
	<path d="M38.8,103.1c2.5-5,5.3-9.8,8.1-14.6c1.4-2.4,2.9-4.8,4.3-7.1c0.7-1.2,1.4-2.4,2.4-3.6c0.9-1.2,1.9-2.3,3.2-3.2
		c1.2-0.9,2.6-1.7,4.2-2.1c0.8-0.2,1.6-0.3,2.4-0.4c0.9,0,1.5,0,2.2,0c2.8,0.1,5.6,0.1,8.3,0.2c1.4,0.1,2.8,0.1,4.2,0.2l2.1,0.1
		c0.7,0,1.5,0.2,2.2,0.4c1.5,0.5,2.8,1.5,3.5,2.8c0.3,0.7,0.6,1.4,0.7,2.1c0.1,0.7,0.1,1.4,0,2.1c-0.2-1.4-0.6-2.7-1.4-3.8
		c-0.8-1-1.9-1.6-3.2-1.9c-0.6-0.1-1.2-0.2-1.9-0.1l-2.1,0.1c-1.4,0.1-2.8,0.1-4.2,0.2c-2.8,0.1-5.6,0.2-8.3,0.2c-0.7,0-1.5,0-2,0
		c-0.6,0.1-1.2,0.2-1.7,0.3c-1.1,0.4-2.2,0.9-3.2,1.7c-1,0.7-1.9,1.7-2.7,2.7c-0.8,1-1.5,2.2-2.3,3.3c-1.6,2.3-3.1,4.6-4.8,6.9
		C45.7,94.3,42.4,98.8,38.8,103.1z"/>
	<path d="M16.3,191.6c-0.3-1.8-0.1-4,1.4-5.6c0.7-0.8,1.7-1.3,2.6-1.7c1-0.4,2.1-0.5,3-0.5c3.7-0.2,7.4-0.3,11-0.3
		c3.7,0,7.4,0.1,11,0.3c1.8,0.1,3.7,0.3,5.5,0.4c0.9,0.1,1.6,0.1,2.3-0.4c0.7-0.4,1.1-1.3,1.2-2.2c0.2,0.9,0.1,2-0.7,2.8
		c-0.7,0.8-1.9,1.1-2.8,1.2c-1.8,0.2-3.7,0.3-5.5,0.4c-3.7,0.2-7.4,0.3-11,0.3c-3.7,0-7.4-0.1-11-0.3c-1.7-0.1-3.3,0-4.6,1
		C17.4,188,16.7,189.8,16.3,191.6z"/>
	<path d="M194.2,185c7.2-0.6,14.4-0.9,21.6-1.2c3.6-0.1,7.2-0.2,10.8-0.3l10.8-0.1l10.8,0.1l5.4,0.1l2.7,0.1c1,0,2,0.2,3,0.6
		c1,0.4,1.9,1,2.7,1.8c0.7,0.8,1.2,1.8,1.4,2.8c0.2,1,0.3,2,0.2,2.9l-0.1,2.7c-0.2,3.6-0.4,7.2-0.7,10.8c-0.3-3.6-0.5-7.2-0.7-10.8
		l-0.1-2.7c0-0.9-0.1-1.7-0.4-2.4c-0.5-1.5-1.5-2.5-3-3c-0.7-0.2-1.5-0.3-2.3-0.3l-2.7,0.1l-5.4,0.1l-10.8,0.1l-10.8-0.1
		c-3.6-0.1-7.2-0.1-10.8-0.3C208.7,185.9,201.5,185.6,194.2,185z"/>
	<path d="M162.1,109.7c-1.3-0.8-2.3-2.2-2.6-3.7c-0.4-1.5-0.3-3.2,0.1-4.7c1.1-2.9,2.5-5.6,4.1-8.3c3.2-5.2,7.5-9.8,12.5-13.6
		c4.9-3.8,10.6-6.5,16.6-8.3c6-1.7,12.3-2.4,18.5-2.2c6.2,0.2,12.4,1.2,18.3,3.4c5.8,2.2,11.4,5.3,16,9.5c4.6,4.1,8.4,9.3,10.9,15
		c2.4,5.7,3.6,11.9,3.2,18c-0.3-6.1-1.9-12-4.6-17.3c-2.7-5.3-6.5-10-11-13.8c-4.6-3.8-9.8-6.7-15.4-8.6c-5.6-2-11.5-2.9-17.4-3.1
		c-5.9-0.3-11.9,0.4-17.6,1.9c-5.7,1.5-11.2,4.1-16,7.5c-4.8,3.4-9.2,7.6-12.6,12.5c-1.8,2.4-3.3,5.1-4.6,7.7
		c-0.5,1.3-0.7,2.9-0.5,4.3C160.2,107.4,160.9,108.8,162.1,109.7z"/>
	<path d="M154.9,205.4c-0.6-9.3,0-18.9,3.1-28c1.5-4.5,3.7-8.8,6.4-12.8c2.7-4,5.9-7.5,9.4-10.8c7-6.4,15-11.6,23.1-16.2
		c8.2-4.6,16.6-8.7,25.2-12.4c-8,4.8-16.1,9.4-24,14.4c-3.9,2.5-7.8,5-11.5,7.7c-3.8,2.7-7.4,5.5-10.7,8.7
		c-6.8,6.2-12.3,13.6-15.7,22.1C156.9,186.8,155.6,196.1,154.9,205.4z"/>
	<path d="M331.3,191.6c-0.3-1.7-0.1-3.6,1-5.2c0.6-0.8,1.4-1.4,2.3-1.8c0.9-0.4,1.8-0.6,2.8-0.7c1-0.1,1.7-0.1,2.6-0.2l2.5-0.1
		c1.7-0.1,3.4-0.1,5.1-0.1c1.7,0,3.4,0,5.1,0.1l2.5,0.1c0.9,0,1.6,0.1,2.6,0.2c0.9,0.1,1.9,0.3,2.8,0.7c0.9,0.4,1.7,1,2.3,1.8
		c1.2,1.6,1.3,3.5,1,5.2c-0.3-1.7-1-3.3-2.1-4.2c-1.1-1-2.6-1.3-4-1.2c-3.3,0.2-6.7,0.3-10,0.3c-3.3,0-6.8-0.1-10-0.3
		c-1.5,0-3,0.3-4.1,1.2C332.3,188.3,331.7,189.9,331.3,191.6z"/>
	<path d="M471.4,185c7.2-0.6,14.4-0.9,21.6-1.2c3.6-0.1,7.2-0.2,10.8-0.3l10.8-0.1l10.8,0.1l5.4,0.1l2.7,0.1c1,0,2,0.2,3,0.6
		c1,0.4,1.9,1,2.7,1.8c0.7,0.8,1.2,1.8,1.4,2.8c0.2,1,0.3,2,0.2,2.9l-0.1,2.7c-0.2,3.6-0.4,7.2-0.7,10.8c-0.3-3.6-0.5-7.2-0.7-10.8
		l-0.1-2.7c0-0.9-0.1-1.7-0.4-2.4c-0.5-1.5-1.5-2.5-3-3c-0.7-0.2-1.5-0.3-2.3-0.3l-2.7,0.1l-5.4,0.1l-10.8,0.1l-10.8-0.1
		c-3.6-0.1-7.2-0.1-10.8-0.3C485.9,185.9,478.6,185.6,471.4,185z"/>
	<path d="M439.3,109.7c-1.3-0.8-2.3-2.2-2.6-3.7c-0.4-1.5-0.3-3.2,0.1-4.7c1.1-2.9,2.5-5.6,4.1-8.3c3.2-5.2,7.5-9.8,12.5-13.6
		c4.9-3.8,10.6-6.5,16.6-8.3c6-1.7,12.3-2.4,18.5-2.2c6.2,0.2,12.4,1.2,18.3,3.4c5.8,2.2,11.4,5.3,16,9.5c4.6,4.1,8.4,9.3,10.9,15
		c2.4,5.7,3.6,11.9,3.2,18c-0.3-6.1-1.9-12-4.6-17.3c-2.7-5.3-6.5-10-11-13.8c-4.6-3.8-9.8-6.7-15.4-8.6c-5.6-2-11.5-2.9-17.4-3.1
		c-5.9-0.3-11.9,0.4-17.6,1.9c-5.7,1.5-11.2,4.1-16,7.5c-4.8,3.4-9.2,7.6-12.6,12.5c-1.8,2.4-3.3,5.1-4.6,7.7
		c-0.5,1.3-0.7,2.9-0.5,4.3C437.4,107.4,438.1,108.8,439.3,109.7z"/>
	<path d="M438.7,212c-1.3,0.1-2.6-0.1-3.8-0.7c-1.2-0.6-2.2-1.7-2.7-2.9c-0.5-1.2-0.7-2.7-0.7-3.9l-0.1-3.9
		c0.1-5.1,0.4-10.3,1.4-15.4c1-5.1,2.7-10.1,5.1-14.8c2.4-4.7,5.6-8.9,9.1-12.7c3.6-3.8,7.5-7.2,11.7-10.2c4.2-3,8.5-5.9,12.9-8.4
		c8.9-5.2,18.1-9.7,27.5-13.7c-8.8,5.2-17.7,10.3-26.3,15.7c-2.1,1.4-4.3,2.8-6.3,4.2l-3.1,2.2l-1.5,1.1l-1.5,1.2
		c-1,0.8-2,1.5-3,2.3l-2.9,2.4c-1.8,1.7-3.7,3.4-5.4,5.3c-6.9,7.2-11.9,16.2-14.2,26c-1.2,4.9-1.9,9.9-2.3,15l-0.2,3.8
		c-0.1,1.3-0.1,2.5,0.3,3.6c0.4,1.1,1.1,2.2,2.1,2.8C436.2,211.6,437.5,211.9,438.7,212z"/>
	<path d="M617.2,85.4c1.8-0.4,3.7-0.8,5.6-1c1.9-0.2,3.8-0.2,5.7-0.2c0.9,0,1.9,0,2.8,0.1l2.8,0.3c0.9,0.1,1.9,0.2,2.8,0.3l2.8,0.6
		c0.9,0.2,1.9,0.3,2.8,0.6l2.7,0.9l1.4,0.4c0.5,0.1,0.9,0.3,1.3,0.5l2.6,1.1c3.5,1.6,6.8,3.6,9.9,5.9c6.1,4.7,11,10.9,14.2,17.8
		c3.2,6.9,4.7,14.7,4.1,22.1c-0.7-7.5-2.7-14.7-6.2-21.1c-1.7-3.2-3.8-6.2-6.1-9c-1.2-1.4-2.5-2.7-3.7-4l-2.1-1.8
		c-0.7-0.6-1.3-1.2-2.1-1.7c-5.7-4.4-12.4-7.6-19.4-9.6l-2.7-0.7c-0.9-0.2-1.8-0.3-2.7-0.5l-2.7-0.5c-0.9-0.2-1.8-0.2-2.7-0.3
		c-1.8-0.2-3.7-0.4-5.5-0.4C621,85.2,619.1,85.3,617.2,85.4z"/>
	<path d="M579.4,87.6c3.1-10.5,7.3-20.7,13-30.2c5.7-9.5,12.6-18.1,20.2-26.1c3.8-4,7.8-7.8,12.2-11.2c0.5-0.4,1.1-0.8,1.7-1.3
		c0.6-0.4,1.1-0.8,1.7-1.2c1.1-0.8,2.4-1.6,3.6-2.2c2.6-1.3,5.4-2.2,8.3-2.4c0.7-0.1,1.5-0.1,2.2-0.1l2.1,0l4.1,0.1l8.2,0.2l2.1,0.1
		l1.1,0.1c0.4,0.1,0.7,0.2,1.1,0.3c1.4,0.4,2.7,1.5,3.3,2.8c0.7,1.3,0.7,2.9,0.4,4.2c-0.4,1.4-1.2,2.6-2.3,3.4
		c2-1.9,2.6-5.1,1.2-7.2c-0.7-1.1-1.7-1.9-2.9-2.1c-0.3,0-0.6-0.1-0.9-0.2l-0.9,0l-2,0.1l-8.2,0.2l-4.1,0.1l-2.1,0
		c-0.7,0-1.3,0.1-1.9,0.1c-2.5,0.3-5,1.2-7.3,2.4c-1.1,0.6-2.2,1.3-3.3,2.1c-0.5,0.4-1.1,0.8-1.6,1.2c-0.5,0.4-1.1,0.8-1.6,1.3
		c-4.2,3.4-8.1,7.2-11.8,11.1c-3.8,3.9-7.3,8-10.8,12.2c-3.4,4.2-6.6,8.6-9.7,13.1C588.5,67.7,583.6,77.5,579.4,87.6z"/>
	<path d="M602.8,164.9c0.7,5.7,3.2,11,7.2,14.6c4,3.7,9.3,5.5,14.7,5.5c5.4,0,10.7-1.8,14.7-5.5c4-3.7,6.5-8.9,7.2-14.6
		c0.6,5.7-1.4,11.9-5.6,16.3c-2,2.2-4.6,4-7.5,5.1c-2.8,1.1-5.9,1.6-8.9,1.7c-3-0.1-6.1-0.6-8.9-1.7c-2.8-1.2-5.4-2.9-7.5-5.1
		C604.3,176.7,602.2,170.6,602.8,164.9z"/>
</g>
<g id="snow4">
	<path d="M86.5,181.7c0.2,0.9,0.7,1.7,1.3,2.1c0.6,0.4,1.4,0.4,2.2,0.2c1.8-0.3,3.7-0.4,5.5-0.6c3.7-0.3,7.3-0.4,11-0.4
		c3.7,0,7.3,0.1,11,0.4c0.9,0.1,2.1,0.2,3.1,0.6c1,0.4,2,1,2.7,1.8c0.7,0.8,1.1,1.8,1.3,2.8c0.2,1,0.1,2-0.1,2.9
		c-0.4-1.8-1.2-3.5-2.5-4.3c-1.3-0.8-2.8-0.9-4.4-0.8c-3.7,0.3-7.3,0.4-11,0.4c-3.7,0-7.3-0.1-11-0.4c-1.8-0.2-3.7-0.3-5.5-0.6
		c-1-0.1-2.2-0.5-2.9-1.4C86.4,183.7,86.3,182.6,86.5,181.7z"/>
	<path d="M38.8,103.1c2.3-5.1,5-10,7.8-14.8c1.4-2.4,2.8-4.8,4.3-7.2l1.1-1.8c0.4-0.6,0.8-1.3,1.3-1.8c0.9-1.2,2-2.3,3.3-3.3
		c1.3-1,2.7-1.8,4.3-2.2c0.8-0.2,1.6-0.4,2.5-0.4l0.6,0l0.5,0l1,0c2.8,0.1,5.6,0.2,8.3,0.3c1.4,0.1,2.8,0.1,4.2,0.2l2.1,0.2
		c0.8,0.1,1.5,0.2,2.3,0.5c1.5,0.5,2.9,1.6,3.5,3c0.7,1.4,0.8,2.9,0.6,4.3c-0.2-1.4-0.7-2.7-1.5-3.7c-0.8-1-1.9-1.5-3.1-1.7
		c-0.6-0.1-1.2-0.1-1.8-0.1l-2.1,0.2c-1.4,0.1-2.8,0.2-4.2,0.2c-2.8,0.2-5.6,0.3-8.3,0.3l-1,0l-0.5,0l-0.4,0
		c-0.5,0.1-1.1,0.2-1.6,0.3c-1.1,0.3-2.1,0.9-3,1.6c-0.9,0.7-1.8,1.6-2.6,2.6c-0.4,0.5-0.7,1-1.1,1.6l-1.2,1.7
		c-1.6,2.3-3.2,4.6-4.8,6.8C46,94.4,42.6,98.9,38.8,103.1z"/>
	<path d="M16.3,191.6c-0.2-0.9-0.3-1.9-0.1-2.9c0.2-1,0.6-2,1.3-2.8c0.7-0.8,1.7-1.5,2.7-1.8c1-0.4,2.1-0.5,3.1-0.6
		c3.7-0.3,7.4-0.4,11-0.4c3.7,0,7.4,0.1,11,0.4c1.8,0.2,3.7,0.3,5.5,0.6c0.8,0.2,1.5,0.1,2.2-0.2c0.7-0.4,1.1-1.2,1.3-2.1
		c0.2,0.9,0.2,2-0.6,2.9c-0.7,0.9-2,1.3-2.9,1.4c-1.8,0.3-3.7,0.4-5.5,0.6c-3.7,0.3-7.4,0.4-11,0.4c-3.7,0-7.4-0.1-11-0.4
		c-1.7-0.2-3.2-0.1-4.5,0.7C17.6,188.1,16.8,189.8,16.3,191.6z"/>
	<path d="M194.2,185c7.2-0.8,14.4-1.3,21.6-1.6c3.6-0.2,7.2-0.2,10.8-0.3l10.8-0.1l10.8,0.1l5.4,0.1l2.7,0.1c1,0,2.1,0.2,3.2,0.6
		c1,0.4,2,1.1,2.8,1.9c0.8,0.9,1.3,1.9,1.5,3c0.2,1,0.3,2.1,0.2,3l-0.2,2.7c-0.3,3.6-0.5,7.2-1,10.8c-0.4-3.6-0.7-7.2-1-10.8
		l-0.2-2.7c-0.1-0.9-0.2-1.6-0.4-2.3c-0.5-1.4-1.5-2.3-2.8-2.7c-0.7-0.2-1.4-0.3-2.2-0.2l-2.7,0.1l-5.4,0.1l-10.8,0.1l-10.8-0.1
		c-3.6-0.1-7.2-0.1-10.8-0.3C208.7,186.2,201.5,185.8,194.2,185z"/>
	<path d="M162.1,109.7c-1.3-0.8-2.3-2.1-2.7-3.7c-0.4-1.5-0.4-3.2,0.1-4.7c1.1-3,2.4-5.7,4.1-8.3c3.2-5.3,7.5-10,12.5-13.8
		c4.9-3.9,10.7-6.6,16.7-8.5c6-1.8,12.4-2.5,18.6-2.2c6.2,0.2,12.5,1.3,18.4,3.5c5.9,2.2,11.4,5.4,16.1,9.6
		c4.7,4.2,8.4,9.4,10.8,15.1c2.4,5.7,3.5,12,3,18.1c-0.4-6.1-2-12-4.8-17.2c-2.7-5.3-6.6-9.9-11.1-13.6c-4.6-3.7-9.7-6.6-15.3-8.4
		c-5.5-2-11.4-2.9-17.3-3c-5.9-0.3-11.8,0.4-17.4,1.9c-5.7,1.5-11.1,4-15.9,7.3c-4.8,3.4-9.2,7.5-12.7,12.3c-1.8,2.4-3.3,5-4.6,7.6
		c-0.6,1.3-0.8,2.8-0.5,4.2C160.2,107.3,160.9,108.8,162.1,109.7z"/>
	<path d="M154.9,205.4c-0.8-9.3-0.3-18.9,2.7-28.1c1.4-4.6,3.7-8.9,6.4-12.9c2.7-4,6-7.6,9.4-10.9c3.5-3.2,7.3-6.1,11.2-8.8
		c3.9-2.6,7.9-5.1,12.1-7.4c8.2-4.5,16.7-8.5,25.4-12c-7.9,5-16,9.7-23.8,14.7c-3.9,2.5-7.8,5.1-11.5,7.8c-3.7,2.7-7.3,5.5-10.7,8.7
		c-3.4,3.1-6.4,6.4-9.1,10.1c-2.7,3.6-4.9,7.6-6.6,11.8C157.2,186.8,155.8,196.1,154.9,205.4z"/>
	<path d="M331.3,191.6c-0.4-1.7-0.3-3.6,0.8-5.3c0.6-0.8,1.4-1.5,2.3-2c0.9-0.5,1.9-0.7,2.9-0.8c0.5-0.1,0.9-0.1,1.3-0.1l1.3-0.1
		c0.8-0.1,1.7-0.1,2.5-0.1c1.7-0.1,3.4-0.1,5.1-0.1c1.7,0,3.4,0,5.1,0.1c0.8,0,1.7,0.1,2.5,0.1l1.3,0.1c0.4,0,0.8,0.1,1.3,0.1
		c1,0.1,2,0.4,2.9,0.8c0.9,0.5,1.7,1.1,2.3,2c1.2,1.7,1.3,3.7,0.8,5.3c-0.4-1.7-1.1-3.2-2.3-4c-1.1-0.8-2.5-1.1-3.9-1l-2.4,0.2
		c-0.8,0.1-1.7,0.1-2.5,0.1c-1.7,0.1-3.4,0.1-5.1,0.1c-1.7,0-3.4,0-5.1-0.1c-0.8,0-1.7-0.1-2.5-0.1l-2.4-0.2c-1.4-0.1-2.8,0.1-3.9,1
		C332.5,188.4,331.8,189.9,331.3,191.6z"/>
	<path d="M471.4,185c7.2-0.8,14.4-1.3,21.6-1.6c3.6-0.2,7.2-0.2,10.8-0.3l10.8-0.1l10.8,0.1l5.4,0.1l2.7,0.1c1,0,2.1,0.2,3.2,0.6
		c1,0.4,2,1.1,2.8,1.9c0.8,0.9,1.3,1.9,1.5,3c0.2,1,0.3,2.1,0.2,3l-0.2,2.7c-0.3,3.6-0.5,7.2-1,10.8c-0.4-3.6-0.7-7.2-1-10.8
		l-0.2-2.7c-0.1-0.9-0.2-1.6-0.4-2.3c-0.5-1.4-1.5-2.3-2.8-2.7c-0.7-0.2-1.4-0.3-2.2-0.2l-2.7,0.1l-5.4,0.1l-10.8,0.1l-10.8-0.1
		c-3.6-0.1-7.2-0.1-10.8-0.3C485.9,186.2,478.6,185.8,471.4,185z"/>
	<path d="M439.3,109.7c-1.3-0.8-2.3-2.1-2.7-3.7c-0.4-1.5-0.4-3.2,0.1-4.7c1.1-3,2.4-5.7,4.1-8.3c3.2-5.3,7.5-10,12.5-13.8
		c4.9-3.9,10.7-6.6,16.7-8.5c6-1.8,12.4-2.5,18.6-2.2c6.2,0.2,12.5,1.3,18.4,3.5c5.9,2.2,11.4,5.4,16.1,9.6
		c4.7,4.2,8.4,9.4,10.8,15.1c2.4,5.7,3.5,12,3,18.1c-0.4-6.1-2-12-4.8-17.2c-2.7-5.3-6.6-9.9-11.1-13.6c-4.6-3.7-9.7-6.6-15.3-8.4
		c-5.5-2-11.4-2.9-17.3-3c-5.9-0.3-11.8,0.4-17.4,1.9c-5.7,1.5-11.1,4-15.9,7.3c-4.8,3.4-9.2,7.5-12.7,12.3c-1.8,2.4-3.3,5-4.6,7.6
		c-0.6,1.3-0.8,2.8-0.5,4.2C437.4,107.3,438.1,108.8,439.3,109.7z"/>
	<path d="M438.7,212c-1.3,0.1-2.6,0-3.8-0.6c-1.2-0.6-2.2-1.7-2.8-2.9c-0.6-1.3-0.7-2.7-0.7-4l-0.1-3.9c0-5.2,0.3-10.4,1.3-15.5
		c0.9-5.2,2.7-10.2,5.1-14.9c2.4-4.7,5.6-9,9.2-12.9c3.6-3.8,7.6-7.2,11.8-10.3c4.2-3,8.5-5.9,13-8.4c8.9-5.1,18.2-9.5,27.7-13.4
		c-8.7,5.4-17.5,10.5-26.1,16.1c-2.1,1.4-4.2,2.8-6.3,4.2l-3.1,2.2l-1.5,1.1l-1.5,1.2c-1,0.8-2,1.5-3,2.3l-2.9,2.4
		c-1.8,1.7-3.7,3.4-5.3,5.2c-6.9,7.2-11.8,16-14.1,25.7c-1.2,4.8-1.9,9.8-2.4,14.9l-0.3,3.8c-0.1,1.3-0.1,2.4,0.2,3.6
		c0.3,1.1,1,2.1,2.1,2.8C436.2,211.6,437.5,211.9,438.7,212z"/>
	<path d="M617.2,85.4c1.8-0.5,3.7-0.9,5.5-1.1c1.9-0.3,3.8-0.2,5.7-0.3c0.9,0,1.9-0.1,2.9,0l2.8,0.2c1,0.1,1.9,0.1,2.9,0.3l2.8,0.5
		c0.9,0.2,1.9,0.3,2.8,0.6l2.8,0.9l1.4,0.4c0.5,0.1,0.9,0.3,1.4,0.5l2.7,1.1c3.5,1.6,6.8,3.6,10,5.9c0.8,0.5,1.5,1.3,2.2,1.9
		l2.2,1.9c0.7,0.7,1.3,1.4,2,2.1l1,1.1c0.3,0.4,0.7,0.7,0.9,1.1l1.7,2.4l0.8,1.2c0.3,0.4,0.5,0.8,0.7,1.2l1.5,2.5
		c0.5,0.8,0.8,1.7,1.2,2.6c3.2,7,4.5,14.8,3.7,22.3c-0.9-7.5-3-14.6-6.5-20.9c-1.7-3.2-3.8-6.1-6.1-8.9c-1.2-1.4-2.4-2.6-3.7-3.9
		l-2-1.8c-0.7-0.6-1.3-1.2-2.1-1.7c-2.8-2.2-5.9-4.1-9.1-5.7l-2.4-1.2c-0.4-0.2-0.8-0.4-1.2-0.5l-1.3-0.5l-2.5-1
		c-0.8-0.3-1.7-0.5-2.6-0.8l-2.6-0.7c-0.9-0.2-1.8-0.3-2.7-0.5l-2.7-0.5c-0.9-0.2-1.8-0.2-2.7-0.3c-1.8-0.2-3.7-0.5-5.5-0.5
		C621,85.3,619.1,85.3,617.2,85.4z"/>
	<path d="M579.4,87.6c2.9-10.6,7-20.9,12.6-30.4c5.7-9.5,12.6-18.2,20.2-26.2c3.9-4,7.9-7.8,12.3-11.3c0.5-0.4,1.1-0.8,1.7-1.3
		c0.6-0.4,1.1-0.8,1.7-1.2c1.2-0.8,2.4-1.6,3.7-2.2c2.6-1.3,5.5-2.2,8.4-2.4c0.7-0.1,1.5-0.1,2.2-0.1l2.1,0.1l4.1,0.1l8.2,0.3
		l2.1,0.1l1.1,0.1c0.4,0.1,0.7,0.2,1.1,0.3c1.5,0.5,2.8,1.6,3.4,3c1.4,2.8,0.2,6.1-2.1,7.7c1.9-1.9,2.4-5.1,1.1-7.2
		c-0.7-1-1.7-1.8-2.9-2c-0.3,0-0.6-0.1-0.9-0.1l-0.9,0l-2,0.1l-8.2,0.3l-4.1,0.1l-2.1,0.1c-0.6,0-1.3,0.1-1.9,0.2
		c-2.5,0.3-4.9,1.2-7.1,2.4c-1.1,0.6-2.2,1.3-3.2,2.1c-0.5,0.4-1.1,0.8-1.6,1.2c-0.5,0.4-1,0.8-1.6,1.3c-4.1,3.4-8,7.1-11.7,11.1
		c-3.8,3.9-7.3,7.9-10.8,12.1c-3.5,4.2-6.7,8.5-9.7,13C588.7,67.8,583.8,77.6,579.4,87.6z"/>
	<path d="M602.8,164.9c0.9,5.7,3.5,10.8,7.5,14.3c2,1.7,4.3,3.1,6.7,4c2.5,0.9,5.1,1.3,7.7,1.3c2.6,0,5.3-0.4,7.7-1.3
		c2.5-0.9,4.7-2.2,6.7-4c3.9-3.5,6.6-8.6,7.5-14.3c0.8,5.7-1.1,12-5.3,16.6c-2,2.3-4.7,4.1-7.6,5.3c-2.9,1.2-6,1.7-9.1,1.8
		c-3.1,0-6.2-0.6-9.1-1.8c-2.9-1.2-5.5-3-7.6-5.3C604,176.9,602,170.6,602.8,164.9z"/>
</g>
<g id="snow5">
	<path d="M86.5,181.7c0.3,0.9,0.8,1.7,1.4,2c0.6,0.3,1.3,0.3,2.1,0.1c1.8-0.3,3.7-0.5,5.5-0.7c3.7-0.4,7.3-0.5,11-0.5
		c3.7,0,7.3,0.2,11,0.5c1,0.1,2.1,0.3,3.2,0.7c1.1,0.4,2,1.1,2.8,2c0.7,0.9,1.1,1.9,1.3,3c0.1,1,0,2-0.2,2.9
		c-0.3-0.9-0.6-1.8-1.1-2.5c-0.5-0.7-1-1.3-1.6-1.6c-1.3-0.7-2.6-0.8-4.2-0.5c-3.7,0.4-7.3,0.5-11,0.5c-3.7,0-7.3-0.2-11-0.5
		c-1.8-0.2-3.7-0.4-5.5-0.7c-1-0.1-2.3-0.5-3-1.5C86.3,183.7,86.3,182.6,86.5,181.7z"/>
	<path d="M38.8,103.1c2.2-5.2,4.7-10.2,7.4-15.1c1.4-2.4,2.8-4.8,4.2-7.2l1.1-1.8c0.4-0.6,0.8-1.3,1.3-1.9c0.9-1.2,2-2.4,3.3-3.4
		c1.3-1,2.8-1.8,4.5-2.3c0.8-0.2,1.7-0.4,2.6-0.4l0.7,0l0.5,0l1,0c2.8,0.1,5.6,0.2,8.3,0.4c1.4,0.1,2.8,0.2,4.2,0.3
		c0.7,0.1,1.4,0.1,2.1,0.2c0.8,0.1,1.6,0.3,2.3,0.5c1.5,0.6,2.9,1.7,3.6,3.2c0.3,0.7,0.5,1.5,0.6,2.2c0,0.7,0,1.5-0.1,2.2
		c-0.3-1.4-0.8-2.7-1.6-3.6c-0.8-0.9-1.9-1.4-3.1-1.5c-0.6-0.1-1.2-0.1-1.8,0L78.1,75c-1.4,0.1-2.8,0.2-4.2,0.3
		c-2.8,0.2-5.6,0.3-8.3,0.4l-1,0l-0.5,0l-0.4,0c-0.5,0.1-1,0.2-1.5,0.3c-1,0.3-2,0.8-2.8,1.5c-0.9,0.7-1.7,1.5-2.5,2.5
		c-0.4,0.5-0.7,0.9-1.1,1.5l-1.2,1.7c-1.6,2.3-3.2,4.5-4.9,6.8C46.2,94.6,42.7,99,38.8,103.1z"/>
	<path d="M16.3,191.6c-0.3-0.9-0.4-1.9-0.2-2.9c0.1-1,0.6-2.1,1.3-3c0.7-0.9,1.7-1.6,2.8-2c0.5-0.2,1.1-0.4,1.6-0.5
		c0.5-0.1,1.1-0.2,1.6-0.2c3.7-0.4,7.4-0.5,11-0.5c3.7,0,7.4,0.2,11,0.5c1.8,0.2,3.7,0.4,5.5,0.7c0.8,0.2,1.4,0.2,2.1-0.1
		c0.6-0.3,1.1-1.1,1.4-2c0.3,0.9,0.3,2.1-0.5,3c-0.7,1-2,1.4-3,1.5c-1.8,0.3-3.7,0.5-5.5,0.7c-3.7,0.4-7.4,0.5-11,0.5
		c-3.7,0-7.4-0.2-11-0.5c-1.7-0.2-3-0.2-4.3,0.5c-0.6,0.4-1.2,0.9-1.6,1.6C17,189.8,16.6,190.7,16.3,191.6z"/>
	<path d="M194.2,185c7.2-1,14.4-1.6,21.6-2c7.2-0.4,14.4-0.5,21.6-0.5c3.6,0,7.2,0,10.8,0.1l5.4,0.2l2.7,0.1c1.1,0,2.2,0.2,3.3,0.7
		c1.1,0.4,2.2,1.1,2.9,2.1c0.8,0.9,1.3,2,1.5,3.1c0.2,1.1,0.2,2.2,0.2,3.1l-0.2,2.7c-0.3,3.6-0.7,7.2-1.2,10.8
		c-0.6-3.6-0.9-7.2-1.2-10.8l-0.2-2.7c-0.1-0.9-0.2-1.6-0.5-2.2c-0.5-1.3-1.4-2.1-2.6-2.4c-0.6-0.2-1.3-0.2-2-0.2l-2.7,0.1l-5.4,0.2
		c-3.6,0.1-7.2,0.1-10.8,0.1c-7.2,0-14.4-0.2-21.6-0.5C208.7,186.5,201.5,186,194.2,185z"/>
	<path d="M162.1,109.7c-1.4-0.7-2.3-2.1-2.8-3.6c-0.4-1.5-0.4-3.2,0-4.8c1.1-3,2.4-5.8,4-8.4c3.2-5.4,7.4-10.1,12.4-14
		c4.9-3.9,10.7-6.8,16.8-8.6c6.1-1.8,12.5-2.5,18.7-2.3c3.2,0,6.3,0.5,9.4,1l4.6,1.1c1.5,0.4,3,1,4.5,1.5c5.9,2.2,11.5,5.5,16.2,9.8
		c4.7,4.3,8.4,9.5,10.8,15.3c2.3,5.8,3.4,12.1,2.8,18.2c-0.6-6.1-2.2-11.9-5-17.1c-2.8-5.2-6.6-9.8-11.1-13.4
		c-9.1-7.3-20.7-11-32.3-11.3c-11.6-0.5-23.4,2.4-33.1,9c-4.8,3.3-9.2,7.4-12.7,12.2c-1.8,2.3-3.4,5-4.7,7.5
		c-0.6,1.3-0.8,2.8-0.6,4.2C160.3,107.3,161,108.7,162.1,109.7z"/>
	<path d="M154.9,205.4c-1-9.3-0.6-19,2.3-28.2c2.9-9.3,8.8-17.6,15.9-24c7.1-6.5,15.1-11.7,23.4-16.2c8.3-4.5,16.8-8.4,25.6-11.7
		c-7.8,5.2-15.8,10-23.6,15.1c-7.7,5.1-15.3,10.3-22,16.5c-6.7,6.1-12.2,13.3-15.6,21.7C157.5,186.9,156,196.1,154.9,205.4z"/>
	<path d="M331.3,191.6c-0.3-0.8-0.4-1.7-0.3-2.7c0.1-0.9,0.4-1.9,1-2.8c0.6-0.9,1.4-1.6,2.4-2.1c0.9-0.5,2-0.8,3-0.9l1.4-0.2
		l1.3-0.1c0.8-0.1,1.7-0.1,2.5-0.2c1.7-0.1,3.4-0.1,5.1-0.1c1.7,0,3.4,0,5.1,0.1c0.8,0.1,1.7,0.1,2.5,0.2l1.3,0.1l1.4,0.2
		c1,0.1,2,0.4,3,0.9c0.9,0.5,1.8,1.2,2.4,2.1c0.6,0.9,0.9,1.9,1,2.8c0.1,0.9,0,1.9-0.3,2.7c-0.3-0.8-0.6-1.6-1-2.3
		c-0.4-0.7-0.9-1.2-1.5-1.6c-1.1-0.7-2.4-0.9-3.7-0.8l-1.2,0.1l-1.3,0.1c-0.8,0.1-1.7,0.1-2.5,0.2c-1.7,0.1-3.4,0.1-5.1,0.1
		c-1.7,0-3.4,0-5.1-0.1c-0.8-0.1-1.7-0.1-2.5-0.2l-1.3-0.1l-1.2-0.1c-1.4-0.1-2.6,0-3.7,0.8c-0.6,0.4-1,0.9-1.5,1.6
		C331.9,190,331.6,190.7,331.3,191.6z"/>
	<path d="M471.4,185c7.2-1,14.4-1.6,21.6-2c7.2-0.4,14.4-0.5,21.6-0.5c3.6,0,7.2,0,10.8,0.1l5.4,0.2l2.7,0.1c1.1,0,2.2,0.2,3.3,0.7
		c1.1,0.4,2.2,1.1,2.9,2.1c0.8,0.9,1.3,2,1.5,3.1c0.2,1.1,0.2,2.2,0.2,3.1l-0.2,2.7c-0.3,3.6-0.7,7.2-1.2,10.8
		c-0.6-3.6-0.9-7.2-1.2-10.8l-0.2-2.7c-0.1-0.9-0.2-1.6-0.5-2.2c-0.5-1.3-1.4-2.1-2.6-2.4c-0.6-0.2-1.3-0.2-2-0.2l-2.7,0.1l-5.4,0.2
		c-3.6,0.1-7.2,0.1-10.8,0.1c-7.2,0-14.4-0.2-21.6-0.5C485.9,186.5,478.6,186,471.4,185z"/>
	<path d="M439.3,109.7c-1.4-0.7-2.3-2.1-2.8-3.6c-0.4-1.5-0.4-3.2,0-4.8c1.1-3,2.4-5.8,4-8.4c3.2-5.4,7.4-10.1,12.4-14
		c4.9-3.9,10.7-6.8,16.8-8.6c6.1-1.8,12.5-2.5,18.7-2.3c3.2,0,6.3,0.5,9.4,1l4.6,1.1c1.5,0.4,3,1,4.5,1.5c5.9,2.2,11.5,5.5,16.2,9.8
		c4.7,4.3,8.4,9.5,10.8,15.3c2.3,5.8,3.4,12.1,2.8,18.2c-0.6-6.1-2.2-11.9-5-17.1c-2.8-5.2-6.6-9.8-11.1-13.4
		c-9.1-7.3-20.7-11-32.3-11.3c-11.6-0.5-23.4,2.4-33.1,9c-4.8,3.3-9.2,7.4-12.7,12.2c-1.8,2.3-3.4,5-4.7,7.5
		c-0.6,1.3-0.8,2.8-0.6,4.2C437.5,107.3,438.1,108.7,439.3,109.7z"/>
	<path d="M438.7,212c-1.3,0.1-2.6,0-3.9-0.5c-1.3-0.5-2.3-1.7-2.9-2.9c-0.6-1.3-0.8-2.8-0.8-4l-0.2-3.9c-0.1-5.2,0.2-10.4,1.2-15.6
		c0.9-5.2,2.6-10.3,5-15c2.4-4.8,5.6-9.1,9.2-13c1.8-2,3.7-3.7,5.7-5.5l3-2.5c1-0.8,2.1-1.6,3.1-2.4c4.2-3.1,8.6-5.9,13.1-8.3
		c9-5.1,18.3-9.4,27.9-13.1c-8.6,5.6-17.4,10.8-25.9,16.4c-2.1,1.4-4.2,2.8-6.3,4.3l-3,2.2l-1.5,1.1l-1.5,1.2
		c-4,3.1-7.7,6.3-11.1,10c-3.4,3.6-6.3,7.5-8.7,11.8c-2.4,4.3-4.2,8.9-5.4,13.7c-1.2,4.8-2,9.8-2.5,14.8l-0.3,3.8
		c-0.1,0.7-0.1,1.2-0.1,1.8c0,0.6,0.1,1.2,0.2,1.7c0.3,1.1,1,2.1,2,2.8C436.2,211.5,437.5,211.8,438.7,212z"/>
	<path d="M617.2,85.4c1.8-0.5,3.7-1,5.5-1.2c1.9-0.3,3.8-0.3,5.7-0.4c1,0,1.9-0.1,2.9,0l2.9,0.2c1,0.1,1.9,0.1,2.9,0.3l2.8,0.5
		c7.6,1.5,14.9,4.7,21.2,9.5c6.3,4.7,11.2,11.2,14.3,18.3c3.1,7.1,4.4,15,3.3,22.5c-1.1-7.5-3.3-14.5-6.9-20.7
		c-3.5-6.2-8.2-11.8-13.8-16.1c-5.6-4.3-12.1-7.5-19-9.6l-2.6-0.8c-0.9-0.2-1.8-0.4-2.7-0.6l-2.7-0.6c-0.9-0.2-1.8-0.2-2.7-0.4
		c-1.8-0.2-3.7-0.6-5.5-0.7C621,85.4,619.1,85.4,617.2,85.4z"/>
	<path d="M579.4,87.6c2.7-10.7,6.7-21,12.3-30.6c5.6-9.6,12.5-18.4,20.2-26.4c1.9-2,3.9-3.9,5.9-5.8c2.1-1.9,4.1-3.7,6.4-5.4
		c0.5-0.4,1.1-0.9,1.7-1.3c0.6-0.4,1.1-0.8,1.7-1.2c1.2-0.8,2.4-1.6,3.8-2.3c2.7-1.3,5.6-2.2,8.6-2.4c0.7-0.1,1.5-0.1,2.2,0l2.1,0.1
		c1.4,0.1,2.7,0.1,4.1,0.2l8.2,0.4l2.1,0.1l1.2,0.1c0.4,0.1,0.8,0.2,1.1,0.3c1.5,0.5,2.8,1.7,3.5,3.1c0.7,1.4,0.7,3,0.3,4.4
		c-0.4,1.4-1.3,2.6-2.4,3.4c1.9-2,2.3-5.1,1-7.1c-0.7-1-1.6-1.7-2.8-1.9c-0.3,0-0.6-0.1-0.9-0.1l-0.9,0l-2,0.1l-8.2,0.4
		c-1.4,0.1-2.7,0.1-4.1,0.2l-2.1,0.1c-0.6,0-1.2,0.1-1.8,0.2c-2.4,0.4-4.8,1.2-7,2.4c-1.1,0.6-2.1,1.3-3.2,2.1
		c-0.5,0.4-1.1,0.8-1.6,1.2c-0.5,0.4-1,0.8-1.5,1.2c-4.1,3.4-8,7.2-11.7,11c-7.4,7.8-14.4,16.1-20.5,25C589,68,584,77.7,579.4,87.6z
		"/>
	<path d="M602.8,164.9c1.1,5.7,3.8,10.7,7.8,14.1c3.9,3.4,9,5,14.1,5c5.2,0,10.2-1.6,14.1-5c3.9-3.4,6.7-8.4,7.8-14.1
		c1,5.7-0.8,12.2-5,16.8c-2.1,2.3-4.7,4.2-7.7,5.4c-2.9,1.2-6.1,1.8-9.2,1.8c-3.1,0-6.3-0.6-9.2-1.8c-2.9-1.2-5.6-3.1-7.7-5.4
		C603.7,177,601.8,170.6,602.8,164.9z"/>
</g>
<g id="snow6">
	<path d="M86.5,181.7c0.3,0.9,0.9,1.7,1.5,1.9c0.6,0.2,1.2,0.1,2-0.1c1.8-0.4,3.7-0.7,5.5-0.9c3.7-0.4,7.3-0.6,11-0.6
		c3.7,0,7.3,0.2,11,0.6l0.3,0l0.4,0.1c0.3,0,0.6,0.1,0.8,0.2c0.6,0.1,1.1,0.3,1.7,0.5c1.1,0.5,2.1,1.2,2.8,2.1
		c0.7,0.9,1.1,2,1.2,3.1c0.1,1.1-0.1,2-0.4,3c-0.3-0.9-0.7-1.7-1.2-2.4c-0.5-0.7-1.1-1.2-1.7-1.5c-1.2-0.6-2.5-0.6-4.1-0.3
		c-3.7,0.4-7.3,0.6-11,0.6c-3.7,0-7.3-0.2-11-0.6c-1.8-0.2-3.7-0.5-5.5-0.9c-1-0.2-2.4-0.6-3.1-1.7
		C86.2,183.7,86.2,182.6,86.5,181.7z"/>
	<path d="M38.8,103.1c2-5.3,4.5-10.4,7.1-15.3c1.3-2.5,2.7-4.9,4.1-7.3l1.1-1.8c0.2-0.3,0.4-0.6,0.6-1c0.2-0.3,0.5-0.7,0.7-1
		c1-1.3,2.1-2.5,3.4-3.5c1.3-1,2.9-1.9,4.7-2.4c0.9-0.2,1.8-0.4,2.7-0.4l0.7,0l0.5,0l1,0c2.8,0.1,5.6,0.3,8.3,0.5
		c1.4,0.1,2.8,0.2,4.2,0.4c0.7,0.1,1.4,0.1,2.1,0.2c0.8,0.1,1.6,0.3,2.4,0.6c1.6,0.6,3,1.8,3.7,3.3c0.3,0.7,0.5,1.5,0.5,2.3
		c0,0.8-0.1,1.5-0.2,2.2c-0.3-1.4-0.9-2.7-1.7-3.5c-0.8-0.9-1.9-1.3-3-1.4c-0.6,0-1.1,0-1.7,0l-2.1,0.2c-1.4,0.1-2.8,0.3-4.2,0.4
		c-2.8,0.2-5.6,0.4-8.3,0.5l-1,0l-0.5,0l-0.4,0c-0.5,0.1-0.9,0.2-1.4,0.3c-0.9,0.3-1.8,0.8-2.7,1.5c-0.9,0.6-1.7,1.5-2.4,2.4
		c-0.2,0.2-0.4,0.5-0.6,0.7c-0.2,0.2-0.4,0.5-0.6,0.8l-1.2,1.7c-1.6,2.3-3.2,4.5-4.9,6.7C46.5,94.8,42.9,99.1,38.8,103.1z"/>
	<path d="M16.3,191.6c-0.3-0.9-0.5-1.9-0.4-3c0.1-1.1,0.5-2.2,1.3-3.1c0.7-0.9,1.8-1.7,2.9-2.1c0.5-0.2,1.1-0.4,1.7-0.5
		c0.5-0.1,1.2-0.2,1.6-0.2c3.7-0.4,7.4-0.6,11-0.6c3.7,0,7.4,0.2,11,0.6c1.8,0.2,3.7,0.5,5.5,0.9c0.8,0.2,1.4,0.3,2,0.1
		c0.6-0.2,1.2-1,1.5-1.9c0.3,0.9,0.4,2.1-0.4,3.1c-0.7,1-2.1,1.5-3.1,1.7c-1.8,0.4-3.7,0.7-5.5,0.9c-3.7,0.4-7.4,0.6-11,0.6
		c-3.7,0-7.4-0.2-11-0.6c-0.5,0-0.8-0.1-1.2-0.1c-0.4,0-0.7,0-1,0c-0.7,0-1.3,0.2-1.9,0.5c-0.6,0.3-1.2,0.8-1.7,1.5
		C17.1,189.8,16.7,190.7,16.3,191.6z"/>
	<path d="M194.2,185c7.2-1.2,14.4-1.9,21.6-2.4c7.2-0.4,14.4-0.6,21.6-0.6c3.6,0,7.2,0,10.8,0.2c1.8,0.1,3.6,0.1,5.4,0.2l2.7,0.1
		c1.1,0.1,2.3,0.3,3.4,0.7c1.1,0.4,2.3,1.2,3.1,2.2c0.8,1,1.4,2.2,1.6,3.3c0.2,1.1,0.2,2.3,0.2,3.2l-0.3,2.7
		c-0.4,3.6-0.8,7.2-1.5,10.8c-0.7-3.6-1.1-7.2-1.5-10.8l-0.3-2.7c-0.1-0.8-0.2-1.5-0.5-2.1c-0.5-1.2-1.3-1.8-2.4-2.1
		c-0.6-0.1-1.2-0.2-1.9-0.1l-2.7,0.1c-1.8,0.1-3.6,0.1-5.4,0.2c-3.6,0.1-7.2,0.1-10.8,0.2c-7.2,0-14.4-0.2-21.6-0.6
		C208.7,186.9,201.5,186.2,194.2,185z"/>
	<path d="M162.1,109.7c-1.4-0.7-2.4-2.1-2.9-3.6c-0.5-1.6-0.5-3.3,0-4.9c0.2-0.8,0.5-1.5,0.8-2.2c0.3-0.7,0.6-1.5,0.9-2.1
		c0.7-1.4,1.4-2.8,2.2-4.1c3.1-5.4,7.4-10.2,12.4-14.1c5-4,10.8-6.9,16.9-8.7c6.1-1.8,12.6-2.6,18.9-2.3c3.2,0,6.3,0.5,9.5,1
		l4.7,1.1c1.5,0.5,3,1,4.6,1.5c6,2.3,11.6,5.6,16.3,9.9c4.7,4.3,8.4,9.7,10.7,15.5c2.3,5.9,3.3,12.2,2.6,18.3
		c-0.7-6.1-2.4-11.9-5.3-17c-2.8-5.1-6.7-9.6-11.2-13.2c-9-7.2-20.5-10.8-32.1-11.1c-11.5-0.5-23.2,2.3-32.8,8.9
		c-4.8,3.2-9.2,7.3-12.7,12c-0.9,1.1-1.7,2.4-2.6,3.6c-0.4,0.6-0.8,1.3-1.1,1.9c-0.4,0.6-0.8,1.3-1.1,1.9c-0.6,1.3-0.8,2.7-0.7,4.1
		C160.3,107.3,161,108.7,162.1,109.7z"/>
	<path d="M154.9,205.4c-1.2-9.3-0.9-19,2-28.4c1.4-4.7,3.6-9.1,6.4-13.2c2.7-4.1,6-7.7,9.5-11c7.1-6.6,15.2-11.7,23.5-16.2
		c8.3-4.4,16.9-8.2,25.8-11.3c-7.7,5.4-15.7,10.3-23.4,15.4c-7.7,5.1-15.2,10.4-21.9,16.5c-6.6,6.1-12.1,13.2-15.6,21.5
		C157.8,186.9,156.2,196.1,154.9,205.4z"/>
	<path d="M331.3,191.6c-0.3-0.8-0.5-1.8-0.4-2.7c0-1,0.3-2,0.9-2.9c0.6-0.9,1.5-1.7,2.4-2.2c1-0.5,2-0.8,3.1-1l1.4-0.2l1.3-0.1
		c0.8-0.1,1.7-0.1,2.5-0.2c1.7-0.1,3.4-0.1,5.1-0.2c1.7,0,3.4,0,5.1,0.2c0.8,0.1,1.7,0.1,2.5,0.2l1.3,0.1l1.4,0.2
		c1,0.2,2.1,0.5,3.1,1c1,0.5,1.9,1.3,2.4,2.3c0.6,0.9,0.9,2,0.9,2.9c0,1-0.1,1.9-0.4,2.7c-0.3-0.8-0.7-1.6-1.1-2.3
		c-0.5-0.6-1-1.1-1.5-1.4c-1.1-0.6-2.3-0.7-3.6-0.5l-1.1,0.1l-1.3,0.1c-0.8,0.1-1.7,0.1-2.5,0.2c-1.7,0.1-3.4,0.1-5.1,0.2
		c-1.7,0-3.4-0.1-5.1-0.2c-0.8-0.1-1.7-0.1-2.5-0.2l-1.3-0.1l-1.1-0.1c-1.3-0.2-2.5-0.1-3.6,0.5c-0.5,0.3-1.1,0.8-1.5,1.4
		C332,190,331.7,190.7,331.3,191.6z"/>
	<path d="M471.4,185c7.2-1.2,14.4-1.9,21.6-2.4c7.2-0.4,14.4-0.6,21.6-0.6c3.6,0,7.2,0,10.8,0.2c1.8,0.1,3.6,0.1,5.4,0.2l2.7,0.1
		c1.1,0.1,2.3,0.3,3.4,0.7c1.1,0.4,2.3,1.2,3.1,2.2c0.8,1,1.4,2.2,1.6,3.3c0.2,1.1,0.2,2.3,0.2,3.2l-0.3,2.7
		c-0.4,3.6-0.8,7.2-1.5,10.8c-0.7-3.6-1.1-7.2-1.5-10.8l-0.3-2.7c-0.1-0.8-0.2-1.5-0.5-2.1c-0.5-1.2-1.3-1.8-2.4-2.1
		c-0.6-0.1-1.2-0.2-1.9-0.1l-2.7,0.1c-1.8,0.1-3.6,0.1-5.4,0.2c-3.6,0.1-7.2,0.1-10.8,0.2c-7.2,0-14.4-0.2-21.6-0.6
		C485.9,186.9,478.6,186.2,471.4,185z"/>
	<path d="M439.3,109.7c-1.4-0.7-2.4-2.1-2.9-3.6c-0.5-1.6-0.5-3.3,0-4.9c0.2-0.8,0.5-1.5,0.8-2.2c0.3-0.7,0.6-1.5,0.9-2.1
		c0.7-1.4,1.4-2.8,2.2-4.1c3.1-5.4,7.4-10.2,12.4-14.1c5-4,10.8-6.9,16.9-8.7c6.1-1.8,12.6-2.6,18.9-2.3c3.2,0,6.3,0.5,9.5,1
		l4.7,1.1c1.5,0.5,3,1,4.6,1.5c6,2.3,11.6,5.6,16.3,9.9c4.7,4.3,8.4,9.7,10.7,15.5c2.3,5.9,3.3,12.2,2.6,18.3
		c-0.7-6.1-2.4-11.9-5.3-17c-2.8-5.1-6.7-9.6-11.2-13.2c-9-7.2-20.5-10.8-32.1-11.1c-11.5-0.5-23.2,2.3-32.8,8.9
		c-4.8,3.2-9.2,7.3-12.7,12c-0.9,1.1-1.7,2.4-2.6,3.6c-0.4,0.6-0.8,1.3-1.1,1.9c-0.4,0.6-0.8,1.3-1.1,1.9c-0.6,1.3-0.8,2.7-0.7,4.1
		C437.5,107.3,438.2,108.7,439.3,109.7z"/>
	<path d="M438.7,212c-1.3,0.2-2.6,0.1-3.9-0.5c-1.3-0.5-2.4-1.6-3-3c-0.3-0.7-0.5-1.3-0.6-2c-0.1-0.4-0.1-0.7-0.1-1.1l-0.1-1
		l-0.2-3.9c-0.1-5.2,0.1-10.4,1-15.7c0.9-5.2,2.6-10.4,5-15.2c2.4-4.8,5.6-9.2,9.3-13.1c1.8-2,3.8-3.7,5.7-5.5l3.1-2.5
		c1-0.8,2.1-1.6,3.1-2.4c4.2-3.1,8.7-5.8,13.2-8.3c9.1-5,18.4-9.2,28.1-12.7c-8.5,5.8-17.3,11.1-25.6,16.8c-2.1,1.4-4.2,2.9-6.2,4.3
		l-3,2.2l-1.5,1.1l-1.5,1.2c-3.9,3.1-7.7,6.3-11,9.9c-3.3,3.6-6.3,7.4-8.6,11.7c-2.4,4.2-4.2,8.8-5.4,13.5
		c-1.3,4.8-2.1,9.7-2.7,14.7l-0.4,3.8l-0.1,0.9c0,0.3,0,0.6,0,0.9c0,0.6,0.1,1.1,0.2,1.7c0.3,1.1,0.9,2.1,1.9,2.8
		C436.2,211.5,437.5,211.8,438.7,212z"/>
	<path d="M617.2,85.4c1.8-0.6,3.6-1.1,5.5-1.4c1.9-0.4,3.8-0.4,5.7-0.5c1,0,1.9-0.1,2.9-0.1l2.9,0.2c1,0.1,1.9,0.1,2.9,0.2l2.9,0.5
		c7.6,1.4,15.1,4.6,21.4,9.4c6.3,4.8,11.3,11.3,14.4,18.5c3.1,7.2,4.2,15.2,3,22.7c-1.3-7.5-3.7-14.4-7.2-20.6
		c-3.5-6.2-8.2-11.6-13.8-15.8c-5.6-4.3-12-7.5-18.8-9.6l-2.6-0.8c-0.9-0.3-1.8-0.4-2.6-0.6l-2.7-0.6c-0.9-0.2-1.8-0.3-2.7-0.4
		c-1.8-0.3-3.6-0.6-5.5-0.8C621,85.5,619.1,85.4,617.2,85.4z"/>
	<path d="M579.4,87.6c2.5-10.7,6.5-21.1,12-30.9c5.6-9.7,12.5-18.5,20.2-26.5c1.9-2,3.9-4,6-5.9c2.1-1.9,4.2-3.7,6.4-5.4
		c0.5-0.4,1.1-0.9,1.7-1.3c0.6-0.4,1.1-0.8,1.8-1.2c1.2-0.8,2.5-1.6,3.8-2.3c2.7-1.3,5.7-2.2,8.8-2.4c0.8,0,1.6-0.1,2.3,0l2.1,0.1
		l4.1,0.2c2.7,0.1,5.5,0.3,8.2,0.5l2.1,0.2l1.2,0.2c0.4,0.1,0.8,0.2,1.2,0.3c1.5,0.5,2.9,1.7,3.5,3.2c0.7,1.5,0.7,3.1,0.2,4.5
		c-0.5,1.4-1.4,2.6-2.5,3.4c1.9-2,2.2-5.1,0.8-7c-0.7-0.9-1.6-1.6-2.7-1.8c-0.3,0-0.6-0.1-0.8-0.1l-0.9,0l-2,0.2
		c-2.7,0.2-5.5,0.4-8.2,0.5l-4.1,0.2l-2.1,0.1c-0.6,0-1.2,0.1-1.8,0.2c-2.4,0.4-4.7,1.2-6.8,2.4c-1.1,0.6-2.1,1.3-3.1,2.1
		c-0.5,0.4-1,0.8-1.5,1.2c-0.5,0.4-1,0.8-1.5,1.2c-4,3.4-7.9,7.1-11.6,11c-7.4,7.8-14.4,16-20.5,24.9
		C589.3,68.1,584.2,77.7,579.4,87.6z"/>
	<path d="M602.8,164.9c1.3,5.7,4.1,10.5,8,13.8c3.9,3.3,8.8,4.8,13.9,4.8c5.1,0,10-1.5,13.9-4.8c3.9-3.3,6.8-8.1,8-13.8
		c1.2,5.7-0.5,12.3-4.7,17.1c-2.1,2.4-4.8,4.4-7.8,5.6c-3,1.3-6.2,1.8-9.4,1.9c-3.2,0-6.4-0.6-9.4-1.9c-3-1.3-5.7-3.2-7.8-5.6
		C603.4,177.2,601.6,170.6,602.8,164.9z"/>
</g>
<g id="snow7">
	<path d="M86.5,181.7c0.4,0.9,1,1.6,1.6,1.8c0.6,0.2,1.1,0,1.9-0.2c1.8-0.4,3.7-0.8,5.5-1c3.7-0.5,7.3-0.8,11-0.8
		c3.7,0,7.3,0.2,11,0.7l0.3,0l0.4,0.1c0.3,0,0.6,0.1,0.9,0.2c0.6,0.1,1.1,0.3,1.7,0.6c1.1,0.5,2.2,1.3,2.9,2.3
		c0.7,1,1.1,2.2,1.2,3.2c0.1,1.1-0.1,2.1-0.5,3c-0.8-1.8-1.8-3.3-3-3.7c-1.2-0.5-2.4-0.4-3.9-0.1c-3.7,0.5-7.3,0.8-11,0.7
		c-3.7,0-7.3-0.2-11-0.8c-1.8-0.3-3.7-0.6-5.5-1c-1.1-0.2-2.5-0.7-3.2-1.8C86,183.8,86.2,182.6,86.5,181.7z"/>
	<path d="M38.8,103.1c1.8-5.5,4.2-10.5,6.8-15.5c1.3-2.5,2.7-4.9,4.1-7.3c0.3-0.6,0.7-1.2,1.1-1.8c0.2-0.3,0.4-0.6,0.6-1
		c0.2-0.3,0.5-0.7,0.7-1c1-1.3,2.1-2.5,3.5-3.6c1.4-1.1,3-1.9,4.8-2.5c0.9-0.2,1.9-0.4,2.8-0.4l0.7,0l0.5,0l1,0
		c2.8,0.1,5.6,0.3,8.3,0.6c1.4,0.1,2.8,0.3,4.2,0.5l2.1,0.3c0.8,0.1,1.7,0.3,2.5,0.6c1.6,0.6,3.1,1.9,3.7,3.5
		c0.3,0.8,0.5,1.6,0.5,2.3c0,0.8-0.1,1.5-0.3,2.2c-0.4-1.4-1-2.7-1.8-3.5c-0.9-0.8-1.9-1.1-3-1.2c-0.5,0-1.1,0-1.7,0.1l-2,0.3
		c-1.4,0.2-2.8,0.3-4.2,0.5c-2.8,0.3-5.6,0.4-8.3,0.6l-1,0l-0.5,0l-0.3,0c-0.4,0.1-0.9,0.1-1.3,0.3c-0.9,0.3-1.7,0.7-2.5,1.4
		c-0.8,0.6-1.6,1.4-2.3,2.3c-0.2,0.2-0.4,0.4-0.5,0.7c-0.2,0.2-0.3,0.5-0.6,0.8c-0.4,0.6-0.8,1.1-1.2,1.7c-1.6,2.3-3.3,4.5-5,6.7
		C46.7,95,43.1,99.2,38.8,103.1z"/>
	<path d="M16.3,191.6c-0.4-0.9-0.6-1.9-0.5-3c0.1-1.1,0.5-2.3,1.2-3.2c0.8-1,1.8-1.8,3-2.2c0.6-0.2,1.1-0.4,1.7-0.6
		c0.6-0.1,1.2-0.2,1.6-0.3c3.7-0.5,7.4-0.8,11-0.8c3.7,0,7.4,0.2,11,0.7c1.8,0.3,3.7,0.6,5.5,1c0.8,0.2,1.3,0.4,1.9,0.2
		c0.6-0.2,1.2-0.9,1.6-1.8c0.4,0.9,0.5,2.1-0.3,3.2c-0.7,1.1-2.2,1.6-3.2,1.8c-1.8,0.4-3.7,0.8-5.5,1c-3.7,0.5-7.4,0.8-11,0.7
		c-3.7,0-7.4-0.2-11-0.8c-0.5-0.1-0.8-0.1-1.1-0.2c-0.3,0-0.7-0.1-1-0.1c-0.6,0-1.3,0.1-1.9,0.3C18.2,188.3,17.1,189.7,16.3,191.6z"
		/>
	<path d="M194.2,185c7.2-1.4,14.4-2.2,21.6-2.7c7.2-0.5,14.4-0.8,21.6-0.8l5.4,0l5.4,0.1c1.8,0.1,3.6,0.1,5.4,0.2l2.7,0.2
		c1.1,0.1,2.3,0.3,3.5,0.8c1.2,0.5,2.4,1.3,3.2,2.3c0.9,1,1.4,2.3,1.6,3.4c0.2,1.2,0.2,2.4,0.1,3.3l-0.3,2.7
		c-0.5,3.6-1,7.2-1.7,10.8c-0.8-3.6-1.3-7.2-1.7-10.8l-0.3-2.7c-0.1-0.8-0.2-1.5-0.5-2c-0.5-1.1-1.2-1.6-2.2-1.8
		c-0.5-0.1-1.1-0.1-1.8-0.1l-2.7,0.1c-1.8,0.1-3.6,0.2-5.4,0.2l-5.4,0.1l-5.4,0c-7.2,0-14.4-0.2-21.6-0.8
		C208.7,187.2,201.5,186.4,194.2,185z"/>
	<path d="M162.1,109.7c-1.4-0.7-2.4-2.1-2.9-3.6c-0.5-1.6-0.5-3.3-0.1-4.9c0.2-0.8,0.5-1.5,0.8-2.3c0.3-0.7,0.5-1.5,0.9-2.2
		c0.7-1.4,1.3-2.8,2.1-4.2c3.1-5.5,7.4-10.3,12.4-14.3c5-4,10.8-7,17-8.9c6.2-1.9,12.7-2.6,19-2.4c3.2,0,6.4,0.5,9.5,1l4.7,1.1
		c1.5,0.5,3.1,1,4.6,1.5c6,2.3,11.7,5.7,16.4,10.1c4.7,4.4,8.4,9.8,10.7,15.7c2.3,5.9,3.1,12.3,2.4,18.4l-0.8-4.5
		c-0.4-1.5-0.7-2.9-1.2-4.3c-0.6-1.4-1-2.8-1.6-4.2l-1-2c-0.3-0.7-0.6-1.3-1-1.9c-2.9-5.1-6.7-9.5-11.2-13
		c-9-7.1-20.4-10.6-31.9-10.9c-11.5-0.5-23,2.2-32.6,8.7c-4.8,3.2-9.2,7.1-12.7,11.8c-0.9,1.1-1.8,2.4-2.6,3.6
		c-0.4,0.6-0.8,1.3-1.2,1.9c-0.4,0.6-0.8,1.3-1.1,1.9c-0.6,1.2-0.9,2.7-0.7,4.1C160.4,107.3,161,108.7,162.1,109.7z"/>
	<path d="M154.9,205.4c-1.4-9.3-1.3-19.1,1.6-28.5c1.4-4.7,3.6-9.2,6.3-13.3c1.3-2.1,2.9-4,4.5-5.9c1.6-1.8,3.3-3.6,5.1-5.3
		c7.2-6.6,15.3-11.7,23.7-16.1c8.4-4.4,17-8.1,26-11c-7.7,5.5-15.5,10.6-23.2,15.7c-7.6,5.2-15.1,10.5-21.7,16.5
		c-6.6,6-12,13-15.5,21.2C158.1,186.9,156.4,196.1,154.9,205.4z"/>
	<path d="M331.3,191.6c-0.4-0.8-0.6-1.8-0.6-2.8c0-1,0.3-2.1,0.9-3.1c0.6-1,1.5-1.8,2.5-2.4c1-0.6,2.1-0.9,3.2-1.1l1.4-0.2l1.3-0.1
		c0.8-0.1,1.7-0.2,2.5-0.2c1.7-0.1,3.4-0.2,5.1-0.2l2.5,0c0.8,0,1.7,0.1,2.5,0.1c0.8,0.1,1.7,0.1,2.5,0.2l1.3,0.1l1.4,0.2
		c1.1,0.2,2.2,0.5,3.2,1.1c1,0.6,1.9,1.4,2.5,2.4c0.6,1,0.9,2.1,0.9,3.1c0,1-0.2,1.9-0.6,2.8c-0.8-1.7-1.7-3-2.8-3.5
		c-1.1-0.5-2.2-0.5-3.4-0.3l-1.1,0.2l-1.3,0.1c-0.8,0.1-1.7,0.2-2.5,0.2c-0.8,0.1-1.7,0.1-2.5,0.1l-2.5,0c-1.7,0-3.4-0.1-5.1-0.2
		c-0.8-0.1-1.7-0.1-2.5-0.2l-1.3-0.1l-1.1-0.2c-1.2-0.2-2.3-0.2-3.4,0.3C333.1,188.6,332.1,189.9,331.3,191.6z"/>
	<path d="M471.4,185c7.2-1.4,14.4-2.2,21.6-2.7c7.2-0.5,14.4-0.8,21.6-0.8l5.4,0l5.4,0.1c1.8,0.1,3.6,0.1,5.4,0.2l2.7,0.2
		c1.1,0.1,2.3,0.3,3.5,0.8c1.2,0.5,2.4,1.3,3.2,2.3c0.9,1,1.4,2.3,1.6,3.4c0.2,1.2,0.2,2.4,0.1,3.3l-0.3,2.7
		c-0.5,3.6-1,7.2-1.7,10.8c-0.8-3.6-1.3-7.2-1.7-10.8l-0.3-2.7c-0.1-0.8-0.2-1.5-0.5-2c-0.5-1.1-1.2-1.6-2.2-1.8
		c-0.5-0.1-1.1-0.1-1.8-0.1l-2.7,0.1c-1.8,0.1-3.6,0.2-5.4,0.2l-5.4,0.1l-5.4,0c-7.2,0-14.4-0.2-21.6-0.8
		C485.9,187.2,478.6,186.4,471.4,185z"/>
	<path d="M439.3,109.7c-1.4-0.7-2.4-2.1-2.9-3.6c-0.5-1.6-0.5-3.3-0.1-4.9c0.2-0.8,0.5-1.5,0.8-2.3c0.3-0.7,0.5-1.5,0.9-2.2
		c0.7-1.4,1.3-2.8,2.1-4.2c3.1-5.5,7.4-10.3,12.4-14.3c5-4,10.8-7,17-8.9c6.2-1.9,12.7-2.6,19-2.4c3.2,0,6.4,0.5,9.5,1l4.7,1.1
		c1.5,0.5,3.1,1,4.6,1.5c6,2.3,11.7,5.7,16.4,10.1c4.7,4.4,8.4,9.8,10.7,15.7c2.3,5.9,3.1,12.3,2.4,18.4l-0.8-4.5
		c-0.4-1.5-0.7-2.9-1.2-4.3c-0.6-1.4-1-2.8-1.6-4.2l-1-2c-0.3-0.7-0.6-1.3-1-1.9c-2.9-5.1-6.7-9.5-11.2-13
		c-9-7.1-20.4-10.6-31.9-10.9c-11.5-0.5-23,2.2-32.6,8.7c-4.8,3.2-9.2,7.1-12.7,11.8c-0.9,1.1-1.8,2.4-2.6,3.6
		c-0.4,0.6-0.8,1.3-1.2,1.9c-0.4,0.6-0.8,1.3-1.1,1.9c-0.6,1.2-0.9,2.7-0.7,4.1C437.5,107.3,438.2,108.7,439.3,109.7z"/>
	<path d="M438.7,212c-1.3,0.2-2.6,0.1-4-0.4c-1.3-0.5-2.4-1.6-3.1-3c-0.3-0.7-0.6-1.4-0.7-2.1c-0.1-0.4-0.1-0.7-0.2-1.1l-0.1-1
		l-0.3-3.9c-0.2-5.2,0-10.5,0.9-15.7c0.9-5.3,2.5-10.5,5-15.3c2.4-4.9,5.7-9.3,9.3-13.2c1.8-2,3.8-3.8,5.8-5.5l3.1-2.5
		c1-0.8,2.1-1.6,3.2-2.4c4.3-3,8.7-5.8,13.3-8.3c9.1-4.9,18.5-9.1,28.3-12.4c-8.4,5.9-17.1,11.4-25.4,17.1c-2.1,1.4-4.1,2.9-6.2,4.3
		l-3,2.2l-1.5,1.1l-1.5,1.2c-3.9,3.1-7.6,6.3-10.9,9.9c-3.3,3.5-6.2,7.4-8.6,11.5c-2.4,4.2-4.2,8.7-5.5,13.4
		c-1.3,4.7-2.2,9.7-2.8,14.7l-0.4,3.8l-0.1,0.9c0,0.3-0.1,0.6,0,0.8c0,0.6,0,1.1,0.2,1.6c0.2,1.1,0.8,2.1,1.8,2.7
		C436.2,211.4,437.5,211.8,438.7,212z"/>
	<path d="M617.2,85.4c1.8-0.7,3.6-1.2,5.5-1.5c1.9-0.4,3.8-0.5,5.7-0.6c1,0,1.9-0.2,2.9-0.1l2.9,0.1c1,0.1,2,0.1,2.9,0.2
		c1,0.2,1.9,0.3,2.9,0.5c7.7,1.3,15.2,4.6,21.6,9.4c6.4,4.8,11.4,11.4,14.4,18.7c3,7.3,4.1,15.3,2.6,22.8c-1.5-7.5-4-14.3-7.6-20.4
		c-3.6-6.1-8.2-11.4-13.8-15.6c-5.5-4.2-11.8-7.5-18.6-9.6c-0.9-0.3-1.7-0.5-2.6-0.8c-0.9-0.3-1.7-0.4-2.6-0.6l-2.6-0.6
		c-0.9-0.2-1.8-0.3-2.7-0.5c-1.8-0.3-3.6-0.7-5.5-0.9C621,85.6,619.1,85.5,617.2,85.4z"/>
	<path d="M579.4,87.6c2.3-10.8,6.2-21.3,11.6-31.1c5.6-9.7,12.4-18.6,20.1-26.6c1.9-2,3.9-4,6-5.9c2.1-1.9,4.2-3.7,6.5-5.5
		c0.6-0.4,1.1-0.9,1.7-1.3c0.6-0.4,1.2-0.8,1.8-1.2c0.6-0.4,1.2-0.8,1.9-1.2c0.7-0.4,1.3-0.7,2-1.1c2.8-1.4,5.8-2.2,8.9-2.4
		c0.8,0,1.6-0.1,2.3,0l2.1,0.1l4.1,0.2c2.7,0.2,5.5,0.4,8.2,0.6l2.1,0.2l1.2,0.2c0.4,0.1,0.8,0.2,1.2,0.3c1.6,0.6,3,1.8,3.6,3.3
		c0.7,1.5,0.6,3.1,0.2,4.6c-0.5,1.4-1.4,2.6-2.6,3.3c0.9-1,1.5-2.3,1.6-3.6c0.1-1.2-0.2-2.5-0.8-3.4c-0.7-0.9-1.6-1.5-2.7-1.6
		l-0.8-0.1l-0.8,0l-2,0.2c-2.7,0.2-5.5,0.4-8.2,0.6l-4.1,0.2l-2.1,0.1c-0.6,0-1.2,0.1-1.8,0.2c-2.3,0.4-4.5,1.2-6.6,2.4
		c-1,0.6-2,1.3-3.1,2.1c-0.5,0.4-1,0.8-1.5,1.2c-0.5,0.4-1,0.8-1.5,1.2c-4,3.4-7.9,7.1-11.6,11c-7.4,7.7-14.4,16-20.5,24.7
		C589.6,68.2,584.4,77.8,579.4,87.6z"/>
	<path d="M602.8,164.9c1.5,5.7,4.4,10.4,8.3,13.5c3.9,3.2,8.6,4.6,13.6,4.6c5,0,9.7-1.4,13.6-4.6c3.9-3.1,6.8-7.8,8.3-13.5
		c1.5,5.7-0.2,12.5-4.4,17.4c-2.1,2.5-4.8,4.5-7.9,5.8l-1.1,0.5c-0.4,0.1-0.8,0.2-1.2,0.4c-0.8,0.2-1.6,0.5-2.4,0.6
		c-0.8,0.1-1.6,0.3-2.4,0.3l-2.4,0.1c-3.2,0-6.5-0.6-9.6-1.9c-3-1.3-5.8-3.3-7.9-5.8C603.1,177.3,601.4,170.6,602.8,164.9z"/>
</g>
<g id="snow8">
	<path d="M86.5,181.7c0.4,0.9,1.1,1.6,1.7,1.7c0.6,0.1,1.1-0.1,1.8-0.3c1.8-0.5,3.7-0.9,5.5-1.2c3.7-0.6,7.3-0.9,11-0.9
		c3.7,0,7.3,0.3,11,0.9l0.8,0.1c0.3,0.1,0.6,0.1,0.9,0.2c0.6,0.1,1.2,0.3,1.8,0.6c1.2,0.5,2.2,1.3,3,2.4c0.8,1,1.1,2.3,1.2,3.4
		c0,1.1-0.2,2.1-0.6,3.1c-0.4-0.9-0.9-1.7-1.5-2.3c-0.5-0.6-1.1-1-1.7-1.2c-0.6-0.2-1.2-0.2-1.8-0.2c-0.3,0-0.6,0-0.9,0.1
		c-0.2,0-0.3,0.1-0.5,0.1l-0.2,0l-0.3,0.1c-3.7,0.6-7.3,0.9-11,0.9c-3.7,0-7.3-0.3-11-0.9c-1.8-0.3-3.7-0.7-5.5-1.2
		c-1.1-0.2-2.6-0.8-3.3-2C85.9,183.8,86.1,182.6,86.5,181.7z"/>
	<path d="M38.8,103.1c1.6-5.6,4-10.7,6.5-15.7c1.3-2.5,2.6-4.9,4-7.4c0.3-0.6,0.7-1.2,1.1-1.8c0.2-0.3,0.4-0.6,0.6-1
		c0.2-0.4,0.5-0.7,0.7-1c1-1.3,2.2-2.6,3.6-3.7c1.4-1.1,3.1-2,5-2.5c0.9-0.3,1.9-0.4,2.9-0.4l0.7,0l0.6,0l1,0
		c2.8,0.1,5.6,0.3,8.3,0.6c1.4,0.1,2.8,0.3,4.2,0.5l2.1,0.3c0.8,0.1,1.7,0.4,2.5,0.7c1.6,0.7,3.2,2,3.8,3.6c0.6,1.6,0.5,3.2,0.1,4.6
		c-0.4-1.4-1.1-2.6-2-3.4c-0.9-0.8-1.9-1-2.9-1c-0.5,0-1.1,0-1.6,0.2l-2,0.3c-1.4,0.2-2.8,0.4-4.2,0.5c-2.8,0.3-5.6,0.5-8.3,0.6
		l-1,0l-0.5,0l-0.3,0c-0.4,0.1-0.8,0.1-1.2,0.3c-0.8,0.3-1.6,0.7-2.3,1.3c-0.8,0.6-1.5,1.3-2.3,2.2c-0.2,0.2-0.4,0.4-0.5,0.7
		c-0.2,0.2-0.3,0.4-0.5,0.7c-0.4,0.6-0.8,1.1-1.2,1.7c-1.6,2.3-3.3,4.5-5.1,6.6C47,95.1,43.3,99.3,38.8,103.1z"/>
	<path d="M16.3,191.6c-0.4-0.9-0.7-2-0.6-3.1c0-1.1,0.4-2.3,1.2-3.4c0.8-1,1.9-1.9,3-2.4c0.6-0.3,1.2-0.5,1.8-0.6
		c0.6-0.1,1.3-0.2,1.7-0.3c3.7-0.6,7.4-0.9,11-0.9c3.7,0,7.4,0.3,11,0.9c1.8,0.3,3.7,0.7,5.5,1.2c0.8,0.3,1.2,0.5,1.8,0.4
		c0.6-0.1,1.3-0.8,1.7-1.7c0.4,0.9,0.6,2.2-0.2,3.3c-0.4,0.6-0.9,1-1.5,1.3c-0.3,0.2-0.6,0.3-0.9,0.4c-0.3,0.1-0.7,0.2-0.9,0.2
		c-1.8,0.5-3.7,0.9-5.5,1.2c-3.7,0.6-7.4,0.9-11,0.9c-3.7,0-7.4-0.3-11-0.9c-0.5-0.1-0.7-0.2-1.1-0.2c-0.3-0.1-0.6-0.1-0.9-0.1
		c-0.6,0-1.2,0-1.8,0.2c-0.6,0.2-1.2,0.6-1.7,1.2C17.3,189.9,16.8,190.7,16.3,191.6z"/>
	<path d="M194.2,185c7.2-1.7,14.4-2.5,21.6-3.1c7.2-0.6,14.4-0.9,21.6-0.9l5.4,0c1.8,0.1,3.6,0.1,5.4,0.2c1.8,0.1,3.6,0.1,5.4,0.3
		l2.7,0.2c1.2,0.1,2.4,0.3,3.7,0.8c1.2,0.5,2.5,1.3,3.4,2.4c0.9,1.1,1.5,2.4,1.7,3.6c0.2,1.2,0.2,2.4,0.1,3.4l-0.4,2.7
		c-0.3,1.8-0.5,3.6-0.9,5.4c-0.3,1.8-0.7,3.6-1.1,5.4c-0.4-1.8-0.8-3.6-1.1-5.4c-0.3-1.8-0.6-3.6-0.9-5.4l-0.4-2.7
		c-0.1-0.8-0.3-1.4-0.5-1.9c-0.5-1-1.1-1.4-2-1.5c-0.5-0.1-1-0.1-1.7,0l-2.7,0.2c-1.8,0.1-3.6,0.2-5.4,0.3c-1.8,0.1-3.6,0.1-5.4,0.2
		l-5.4,0c-7.2,0-14.4-0.3-21.6-0.9C208.7,187.5,201.5,186.6,194.2,185z"/>
	<path d="M162.1,109.7c-1.4-0.6-2.5-2-3-3.6c-0.5-1.6-0.5-3.3-0.1-5c0.2-0.9,0.5-1.6,0.8-2.3c0.3-0.7,0.5-1.5,0.9-2.2
		c0.6-1.4,1.3-2.9,2.1-4.2c3.1-5.5,7.3-10.5,12.3-14.5c5-4.1,10.9-7.1,17.1-9c6.2-1.9,12.8-2.7,19.2-2.4c3.2,0.1,6.4,0.5,9.6,1
		l4.7,1.1c1.6,0.5,3.1,1,4.6,1.5c6.1,2.3,11.8,5.7,16.5,10.2c4.7,4.5,8.4,9.9,10.7,15.9c2.2,6,3,12.4,2.1,18.5
		c-0.3-1.5-0.6-3-0.8-4.5c-0.4-1.5-0.8-2.9-1.2-4.3c-0.6-1.4-1-2.8-1.6-4.1l-1-2c-0.3-0.6-0.6-1.3-1-1.9c-2.9-5-6.8-9.4-11.2-12.8
		c-9-7-20.2-10.4-31.6-10.7c-11.4-0.5-22.8,2.2-32.3,8.5c-4.8,3.1-9.1,7-12.8,11.6c-0.4,0.6-0.9,1.1-1.4,1.7l-1.3,1.8
		c-0.4,0.6-0.8,1.2-1.2,1.9c-0.4,0.6-0.8,1.3-1.1,1.8c-0.6,1.2-0.9,2.6-0.8,4C160.4,107.2,161,108.6,162.1,109.7z"/>
	<path d="M154.9,205.4c-1.7-9.3-1.6-19.1,1.2-28.6c1.4-4.7,3.6-9.3,6.3-13.5c1.4-2.1,2.9-4,4.5-5.9c1.6-1.9,3.4-3.6,5.1-5.3
		c7.2-6.7,15.4-11.7,23.8-16.1c8.4-4.3,17.1-7.9,26.2-10.7c-7.6,5.7-15.4,10.8-23,16.1c-7.6,5.2-15.1,10.5-21.6,16.6
		c-6.6,6-11.9,12.9-15.5,21C158.4,187,156.6,196.1,154.9,205.4z"/>
	<path d="M331.3,191.6c-0.4-0.8-0.7-1.8-0.7-2.8c0-1,0.2-2.1,0.8-3.2c0.6-1,1.5-1.9,2.6-2.5c1-0.6,2.2-1,3.3-1.2l1.4-0.2l1.3-0.2
		c0.8-0.1,1.7-0.2,2.5-0.3c1.7-0.1,3.4-0.2,5.1-0.2c1.7,0,3.4,0.1,5.1,0.2c0.8,0.1,1.7,0.1,2.5,0.3l1.3,0.2l1.4,0.2
		c1.1,0.2,2.2,0.6,3.3,1.2c1,0.6,2,1.5,2.6,2.5c0.6,1,0.8,2.2,0.8,3.2c0,1-0.3,2-0.7,2.8c-0.4-0.8-0.9-1.6-1.4-2.2
		c-0.5-0.6-1.1-1-1.6-1.2c-1.1-0.4-2.1-0.3-3.2-0.1l-0.5,0.1l-0.6,0.1l-1.3,0.2c-0.8,0.1-1.7,0.2-2.5,0.3c-1.7,0.1-3.4,0.2-5.1,0.2
		c-1.7,0-3.4-0.1-5.1-0.2c-0.8-0.1-1.7-0.1-2.5-0.3l-1.3-0.2l-0.6-0.1l-0.5-0.1c-1.2-0.2-2.2-0.3-3.2,0.1c-0.5,0.2-1.1,0.6-1.6,1.2
		C332.2,190,331.8,190.7,331.3,191.6z"/>
	<path d="M471.4,185c7.2-1.7,14.4-2.5,21.6-3.1c7.2-0.6,14.4-0.9,21.6-0.9l5.4,0c1.8,0.1,3.6,0.1,5.4,0.2c1.8,0.1,3.6,0.1,5.4,0.3
		l2.7,0.2c1.2,0.1,2.4,0.3,3.7,0.8c1.2,0.5,2.5,1.3,3.4,2.4c0.9,1.1,1.5,2.4,1.7,3.6c0.2,1.2,0.2,2.4,0.1,3.4l-0.4,2.7
		c-0.3,1.8-0.5,3.6-0.9,5.4c-0.3,1.8-0.7,3.6-1.1,5.4c-0.4-1.8-0.8-3.6-1.1-5.4c-0.3-1.8-0.6-3.6-0.9-5.4l-0.4-2.7
		c-0.1-0.8-0.3-1.4-0.5-1.9c-0.5-1-1.1-1.4-2-1.5c-0.5-0.1-1-0.1-1.7,0l-2.7,0.2c-1.8,0.1-3.6,0.2-5.4,0.3c-1.8,0.1-3.6,0.1-5.4,0.2
		l-5.4,0c-7.2,0-14.4-0.3-21.6-0.9C485.9,187.5,478.6,186.6,471.4,185z"/>
	<path d="M439.3,109.7c-1.4-0.6-2.5-2-3-3.6c-0.5-1.6-0.5-3.3-0.1-5c0.2-0.9,0.5-1.6,0.8-2.3c0.3-0.7,0.5-1.5,0.9-2.2
		c0.6-1.4,1.3-2.9,2.1-4.2c3.1-5.5,7.3-10.5,12.3-14.5c5-4.1,10.9-7.1,17.1-9c6.2-1.9,12.8-2.7,19.2-2.4c3.2,0.1,6.4,0.5,9.6,1
		l4.7,1.1c1.6,0.5,3.1,1,4.6,1.5c6.1,2.3,11.8,5.7,16.5,10.2c4.7,4.5,8.4,9.9,10.7,15.9c2.2,6,3,12.4,2.1,18.5
		c-0.3-1.5-0.6-3-0.8-4.5c-0.4-1.5-0.8-2.9-1.2-4.3c-0.6-1.4-1-2.8-1.6-4.1l-1-2c-0.3-0.6-0.6-1.3-1-1.9c-2.9-5-6.8-9.4-11.2-12.8
		c-9-7-20.2-10.4-31.6-10.7C476.9,74,465.5,76.7,456,83c-4.8,3.1-9.1,7-12.8,11.6c-0.4,0.6-0.9,1.1-1.4,1.7l-1.3,1.8
		c-0.4,0.6-0.8,1.2-1.2,1.9c-0.4,0.6-0.8,1.3-1.1,1.8c-0.6,1.2-0.9,2.6-0.8,4C437.6,107.2,438.2,108.6,439.3,109.7z"/>
	<path d="M438.7,212c-1.3,0.2-2.7,0.2-4-0.3c-1.3-0.5-2.5-1.6-3.2-3c-0.3-0.7-0.6-1.4-0.7-2.1c-0.1-0.4-0.1-0.7-0.2-1.1l-0.1-1
		l-0.3-3.9c-0.3-5.2-0.1-10.5,0.7-15.8c0.8-5.3,2.5-10.6,5-15.4l0.4-0.9l0.5-0.9l1-1.8c0.7-1.2,1.5-2.3,2.2-3.4
		c0.4-0.6,0.8-1.1,1.2-1.7l1.3-1.6l1.3-1.6c0.4-0.5,0.9-1,1.4-1.5c1.8-2,3.8-3.8,5.8-5.6l3.1-2.5c1-0.8,2.1-1.6,3.2-2.4
		c4.3-3,8.8-5.8,13.3-8.2c9.2-4.9,18.7-8.9,28.5-12.1c-8.3,6.1-17,11.7-25.2,17.4c-2.1,1.4-4.1,2.9-6.1,4.4l-3,2.3l-1.5,1.1
		l-1.4,1.2c-3.9,3.1-7.6,6.3-10.8,9.8c-3.3,3.5-6.2,7.3-8.5,11.4c-2.4,4.1-4.2,8.6-5.5,13.3c-1.3,4.7-2.2,9.6-3,14.6l-0.5,3.8
		l-0.1,0.9c0,0.3-0.1,0.6-0.1,0.8c0,0.6,0,1.1,0.1,1.6c0.2,1,0.8,2,1.7,2.7C436.2,211.4,437.5,211.7,438.7,212z"/>
	<path d="M617.2,85.4c1.8-0.7,3.6-1.3,5.5-1.7c1.9-0.5,3.8-0.5,5.8-0.7c1-0.1,1.9-0.2,2.9-0.2l2.9,0.1c1,0,2,0,2.9,0.2
		c1,0.1,1.9,0.3,2.9,0.4c7.8,1.3,15.4,4.5,21.8,9.4c6.4,4.9,11.5,11.6,14.5,18.9c3,7.4,3.9,15.5,2.3,23c-1.7-7.5-4.3-14.2-7.9-20.2
		c-3.6-6-8.2-11.2-13.7-15.4c-5.5-4.2-11.7-7.4-18.4-9.6c-0.8-0.3-1.7-0.6-2.5-0.9c-0.8-0.3-1.7-0.4-2.6-0.7l-2.6-0.7
		c-0.9-0.3-1.8-0.3-2.7-0.5c-1.8-0.3-3.6-0.8-5.4-1C621,85.7,619.2,85.6,617.2,85.4z"/>
	<path d="M579.4,87.6c2.1-10.9,5.9-21.4,11.3-31.3c5.5-9.8,12.4-18.7,20.1-26.8c1.9-2,4-4,6-5.9c2.1-1.9,4.2-3.7,6.5-5.5
		c0.6-0.4,1.2-0.9,1.7-1.3c0.6-0.4,1.2-0.8,1.8-1.2c0.6-0.4,1.2-0.8,1.9-1.2c0.7-0.4,1.4-0.8,2.1-1.1c2.8-1.4,5.9-2.3,9.1-2.4
		c0.8,0,1.6,0,2.4,0l2.1,0.1l4.1,0.3c2.7,0.2,5.5,0.4,8.2,0.7l2.1,0.2l1.2,0.2c0.4,0.1,0.8,0.2,1.2,0.4c1.6,0.6,3,1.9,3.6,3.5
		c0.7,1.5,0.6,3.2,0.1,4.6c-0.5,1.4-1.5,2.6-2.7,3.3c0.9-1.1,1.4-2.3,1.5-3.6c0.1-1.2-0.2-2.5-0.9-3.3c-0.7-0.9-1.6-1.4-2.6-1.5
		l-0.8-0.1l-0.8,0l-2,0.2c-2.7,0.2-5.5,0.5-8.2,0.7l-4.1,0.3l-2.1,0.1c-0.6,0-1.2,0.1-1.7,0.2c-2.3,0.4-4.4,1.2-6.5,2.4
		c-1,0.6-2,1.3-3,2.1c-0.5,0.4-1,0.8-1.5,1.2c-0.5,0.4-1,0.8-1.5,1.2c-4,3.4-7.8,7.1-11.5,11c-7.4,7.7-14.4,15.9-20.6,24.6
		C589.9,68.4,584.6,77.9,579.4,87.6z"/>
	<path d="M602.8,164.9c1.7,5.7,4.7,10.2,8.6,13.2c3.9,3,8.5,4.3,13.3,4.4c4.9,0,9.4-1.3,13.3-4.4c3.9-3,6.9-7.5,8.6-13.2
		c1.7,5.8,0.1,12.6-4.2,17.7c-2.1,2.5-4.9,4.6-8,5.9c-0.4,0.2-0.8,0.3-1.2,0.5c-0.4,0.2-0.8,0.2-1.2,0.4c-0.8,0.2-1.6,0.5-2.4,0.6
		c-0.8,0.1-1.6,0.3-2.5,0.4l-2.5,0.1l-2.5-0.1c-0.8,0-1.7-0.2-2.5-0.4c-0.8-0.1-1.6-0.4-2.4-0.6c-0.4-0.1-0.8-0.2-1.2-0.4
		c-0.4-0.2-0.8-0.3-1.2-0.5c-3.1-1.3-5.9-3.4-8-5.9C602.8,177.5,601.2,170.6,602.8,164.9z"/>
</g>
<g id="snow9">
	<path d="M86.5,181.7c0.5,0.9,1.2,1.6,1.8,1.6c0.6,0,1-0.2,1.7-0.5c1.8-0.6,3.7-1,5.5-1.3c3.7-0.7,7.3-1,11-1c3.7,0,7.3,0.3,11,1
		l0.8,0.1c0.3,0.1,0.6,0.1,0.9,0.2c0.6,0.2,1.2,0.4,1.8,0.7c1.2,0.6,2.3,1.4,3.1,2.5c0.8,1.1,1.1,2.4,1.1,3.5c0,1.1-0.3,2.2-0.8,3.1
		c-0.5-0.9-1-1.7-1.6-2.3c-0.6-0.6-1.2-0.9-1.8-1.1c-0.6-0.1-1.1-0.1-1.7-0.1c-0.3,0-0.6,0.1-0.9,0.2c-0.1,0-0.3,0.1-0.5,0.1
		c-0.1,0-0.2,0-0.2,0.1l-0.3,0.1c-3.7,0.7-7.3,1-11,1c-3.7,0-7.3-0.3-11-1c-1.8-0.3-3.7-0.8-5.5-1.3c-0.5-0.1-1.2-0.3-1.8-0.7
		c-0.6-0.3-1.2-0.8-1.6-1.4c-0.4-0.6-0.5-1.3-0.5-1.8C86.2,182.7,86.3,182.1,86.5,181.7z"/>
	<path d="M38.8,103.1c1.5-5.7,3.7-10.9,6.1-15.9c1.2-2.5,2.6-5,3.9-7.4c0.3-0.6,0.7-1.2,1.1-1.8c0.2-0.3,0.4-0.6,0.6-1
		c0.2-0.4,0.5-0.7,0.7-1c1-1.4,2.2-2.6,3.7-3.8c1.5-1.1,3.2-2.1,5.2-2.6c1-0.3,2-0.4,3-0.5l0.8,0l0.6,0c0.3,0,0.7,0,1,0.1
		c2.8,0.2,5.6,0.4,8.3,0.7c1.4,0.2,2.8,0.4,4.2,0.6l2.1,0.4c0.9,0.1,1.7,0.4,2.6,0.7c1.7,0.7,3.2,2.1,3.8,3.8c0.6,1.7,0.4,3.3,0,4.7
		c-0.5-1.4-1.2-2.6-2.1-3.3c-0.9-0.7-1.8-0.9-2.8-0.9c-0.5,0-1,0.1-1.5,0.2c-0.6,0.1-1.4,0.2-2,0.3c-1.4,0.2-2.8,0.4-4.2,0.6
		c-2.8,0.3-5.6,0.6-8.3,0.7c-0.3,0-0.7,0-1,0.1c-0.2,0-0.4,0-0.5,0l-0.3,0c-0.4,0.1-0.7,0.1-1.1,0.3c-0.7,0.2-1.5,0.6-2.2,1.2
		c-0.8,0.5-1.5,1.3-2.2,2.1c-0.2,0.2-0.4,0.4-0.5,0.6c-0.2,0.2-0.3,0.4-0.5,0.7c-0.4,0.6-0.8,1.1-1.2,1.7c-1.6,2.2-3.4,4.4-5.2,6.6
		C47.3,95.3,43.5,99.4,38.8,103.1z"/>
	<path d="M16.3,191.6c-0.5-0.9-0.8-2-0.8-3.1c0-1.1,0.4-2.4,1.2-3.5c0.8-1.1,1.9-2,3.1-2.5c0.6-0.3,1.2-0.5,1.8-0.6
		c0.6-0.2,1.3-0.3,1.7-0.3c3.7-0.7,7.4-1,11-1c3.7,0,7.4,0.3,11,1c1.8,0.3,3.7,0.8,5.5,1.3c0.3,0.1,0.3,0.1,0.5,0.2
		c0.1,0.1,0.3,0.1,0.4,0.2c0.3,0.1,0.5,0.1,0.8,0.1c0.6,0,1.3-0.7,1.8-1.6c0.3,0.5,0.4,1,0.4,1.6c0,0.6-0.1,1.3-0.5,1.9
		c-0.4,0.6-1,1.1-1.6,1.4c-0.3,0.2-0.6,0.3-1,0.4c-0.3,0.1-0.7,0.2-0.9,0.3c-1.8,0.6-3.7,1-5.5,1.3c-3.7,0.7-7.4,1-11,1
		c-3.7,0-7.4-0.3-11-1c-0.5-0.1-0.7-0.2-1.1-0.2c-0.3-0.1-0.6-0.1-0.9-0.2c-0.6-0.1-1.1-0.1-1.7,0.1c-0.6,0.1-1.2,0.5-1.8,1.1
		C17.4,189.9,16.8,190.7,16.3,191.6z"/>
	<path d="M194.2,185c7.2-1.9,14.4-2.8,21.6-3.5c7.2-0.7,14.4-1,21.6-1l5.4,0.1c1.8,0.1,3.6,0.1,5.4,0.2c1.8,0.1,3.6,0.2,5.4,0.3
		l2.7,0.2c1.2,0.1,2.5,0.3,3.8,0.9c1.3,0.5,2.6,1.4,3.5,2.6c0.9,1.1,1.5,2.5,1.7,3.8c0.2,1.2,0.2,2.5,0.1,3.5l-0.4,2.7
		c-0.6,3.6-1.2,7.2-2.2,10.8c-1-3.6-1.6-7.2-2.2-10.8l-0.4-2.7c0-0.2-0.1-0.4-0.1-0.6c0-0.2-0.1-0.3-0.1-0.5
		c-0.1-0.3-0.2-0.6-0.3-0.8c-0.6-1-1-1.1-1.9-1.3c-0.4-0.1-0.9-0.1-1.5,0l-2.7,0.2c-1.8,0.1-3.6,0.2-5.4,0.3
		c-1.8,0.1-3.6,0.1-5.4,0.2l-5.4,0.1c-7.2,0-14.4-0.3-21.6-1C208.7,187.8,201.5,186.9,194.2,185z"/>
	<path d="M162.1,109.7c-1.4-0.6-2.5-2-3.1-3.6c-0.5-1.6-0.6-3.4-0.2-5c0.2-0.9,0.5-1.6,0.8-2.3c0.3-0.7,0.5-1.5,0.9-2.2
		c0.6-1.4,1.3-2.9,2.1-4.3c3-5.6,7.3-10.6,12.3-14.7c5-4.1,11-7.2,17.2-9.1c6.3-1.9,12.9-2.7,19.3-2.5c3.2,0.1,6.5,0.5,9.7,1
		l4.8,1.1c1.6,0.5,3.1,1,4.7,1.6c6.1,2.4,11.8,5.8,16.6,10.4c4.7,4.5,8.4,10.1,10.6,16.1c2.2,6,2.9,12.5,1.9,18.6
		c-1-6.1-3-11.7-5.9-16.7c-2.9-5-6.8-9.2-11.3-12.6c-8.9-6.8-20.1-10.2-31.4-10.5c-11.3-0.5-22.6,2.1-32.1,8.3
		c-4.8,3.1-9.1,6.9-12.8,11.4c-0.5,0.6-1,1.1-1.4,1.7l-1.3,1.8c-0.5,0.6-0.8,1.2-1.2,1.8c-0.4,0.6-0.8,1.3-1.1,1.8
		c-0.6,1.2-0.9,2.5-0.8,3.9C160.4,107.2,161,108.6,162.1,109.7z"/>
	<path d="M154.9,205.4c-1.9-9.3-1.9-19.2,0.9-28.8c1.4-4.8,3.6-9.4,6.3-13.6c1.4-2.1,2.9-4.1,4.5-6c1.6-1.9,3.4-3.7,5.2-5.3
		c7.3-6.7,15.5-11.8,23.9-16.1c8.5-4.2,17.2-7.8,26.4-10.3c-7.5,5.9-15.2,11.1-22.8,16.4c-7.5,5.3-15,10.6-21.4,16.6
		c-6.5,6-11.9,12.8-15.5,20.8c-1.8,4-3.2,8.2-4.4,12.7C156.8,196.1,155.9,200.7,154.9,205.4z"/>
	<path d="M331.3,191.6c-0.5-0.8-0.8-1.8-0.8-2.9c-0.1-1.1,0.2-2.2,0.8-3.3c0.6-1.1,1.6-2,2.6-2.7c1.1-0.7,2.2-1,3.4-1.3l1.4-0.3
		c0.4-0.1,0.8-0.1,1.3-0.2c0.8-0.1,1.7-0.2,2.5-0.3c1.7-0.2,3.4-0.2,5.1-0.2c1.7,0,3.4,0.1,5.1,0.2c0.8,0.1,1.7,0.2,2.5,0.3l1.3,0.2
		l1.4,0.3c1.1,0.2,2.3,0.6,3.4,1.3c1.1,0.6,2,1.6,2.6,2.7c0.6,1.1,0.8,2.3,0.8,3.3c0,1.1-0.4,2-0.9,2.9c-0.5-0.8-1-1.6-1.5-2.1
		c-0.5-0.6-1.1-0.9-1.6-1.1c-1.1-0.3-1.9-0.1-3.1,0.2c-0.2,0-0.2,0.1-0.5,0.1l-0.6,0.1l-1.3,0.2c-0.8,0.1-1.7,0.2-2.5,0.3
		c-1.7,0.2-3.4,0.2-5.1,0.2c-1.7,0-3.4-0.1-5.1-0.2c-0.8-0.1-1.7-0.2-2.5-0.3c-0.4-0.1-0.8-0.1-1.3-0.2l-0.6-0.1
		c-0.2,0-0.3-0.1-0.5-0.1c-1.1-0.3-2-0.5-3.1-0.1c-0.5,0.2-1.1,0.5-1.6,1.1C332.3,190,331.8,190.7,331.3,191.6z"/>
	<path d="M471.4,185c7.2-1.9,14.4-2.8,21.6-3.5c7.2-0.7,14.4-1,21.6-1l5.4,0.1c1.8,0.1,3.6,0.1,5.4,0.2c1.8,0.1,3.6,0.2,5.4,0.3
		l2.7,0.2c1.2,0.1,2.5,0.3,3.8,0.9c1.3,0.5,2.6,1.4,3.5,2.6c0.9,1.1,1.5,2.5,1.7,3.8c0.2,1.2,0.2,2.5,0.1,3.5l-0.4,2.7
		c-0.6,3.6-1.2,7.2-2.2,10.8c-1-3.6-1.6-7.2-2.2-10.8l-0.4-2.7c0-0.2-0.1-0.4-0.1-0.6c0-0.2-0.1-0.3-0.1-0.5
		c-0.1-0.3-0.2-0.6-0.3-0.8c-0.6-1-1-1.1-1.9-1.3c-0.4-0.1-0.9-0.1-1.5,0l-2.7,0.2c-1.8,0.1-3.6,0.2-5.4,0.3
		c-1.8,0.1-3.6,0.1-5.4,0.2l-5.4,0.1c-7.2,0-14.4-0.3-21.6-1C485.9,187.8,478.6,186.9,471.4,185z"/>
	<path d="M439.3,109.7c-1.4-0.6-2.5-2-3.1-3.6c-0.5-1.6-0.6-3.4-0.2-5c0.2-0.9,0.5-1.6,0.8-2.3c0.3-0.7,0.5-1.5,0.9-2.2
		c0.6-1.4,1.3-2.9,2.1-4.3c3-5.6,7.3-10.6,12.3-14.7c5-4.1,11-7.2,17.2-9.1c6.3-1.9,12.9-2.7,19.3-2.5c3.2,0.1,6.5,0.5,9.7,1
		l4.8,1.1c1.6,0.5,3.1,1,4.7,1.6c6.1,2.4,11.8,5.8,16.6,10.4c4.7,4.5,8.4,10.1,10.6,16.1c2.2,6,2.9,12.5,1.9,18.6
		c-1-6.1-3-11.7-5.9-16.7c-2.9-5-6.8-9.2-11.3-12.6c-8.9-6.8-20.1-10.2-31.4-10.5c-11.3-0.5-22.6,2.1-32.1,8.3
		c-4.8,3.1-9.1,6.9-12.8,11.4c-0.5,0.6-1,1.1-1.4,1.7l-1.3,1.8c-0.5,0.6-0.8,1.2-1.2,1.8c-0.4,0.6-0.8,1.3-1.1,1.8
		c-0.6,1.2-0.9,2.5-0.8,3.9C437.6,107.2,438.2,108.6,439.3,109.7z"/>
	<path d="M438.7,212c-1.3,0.2-2.7,0.3-4-0.3c-1.4-0.5-2.6-1.6-3.3-3c-0.3-0.7-0.6-1.4-0.8-2.1c-0.1-0.4-0.1-0.7-0.2-1.1l-0.1-1
		l-0.4-3.9c-0.3-5.2-0.2-10.5,0.6-15.9c0.8-5.3,2.5-10.6,4.9-15.6l0.4-0.9l0.5-0.9l1-1.8c0.7-1.2,1.5-2.3,2.3-3.5
		c0.4-0.6,0.8-1.1,1.2-1.7l1.3-1.6l1.3-1.6c0.4-0.5,0.9-1,1.4-1.5c1.8-2,3.9-3.8,5.9-5.6l3.1-2.5c1-0.8,2.1-1.6,3.2-2.4
		c4.3-3,8.8-5.8,13.4-8.2c9.2-4.8,18.8-8.8,28.7-11.7c-8.2,6.3-16.8,11.9-25,17.8c-2.1,1.5-4.1,2.9-6.1,4.4l-3,2.3l-1.5,1.1
		l-1.4,1.2c-3.9,3.1-7.5,6.3-10.8,9.8c-3.3,3.5-6.1,7.2-8.5,11.3c-2.3,4.1-4.2,8.5-5.6,13.1c-1.4,4.7-2.3,9.5-3.1,14.5l-0.5,3.8
		l-0.1,0.9c0,0.3-0.1,0.5-0.1,0.8c0,0.5,0,1.1,0.1,1.6c0.2,1,0.7,2,1.6,2.7C436.2,211.3,437.5,211.7,438.7,212z"/>
	<path d="M617.2,85.4c1.8-0.7,3.6-1.4,5.5-1.8c1.9-0.5,3.8-0.6,5.8-0.8c1-0.1,2-0.2,2.9-0.2c1,0,2,0,2.9,0.1c1,0,2,0,3,0.1
		c1,0.1,2,0.3,2.9,0.4c7.8,1.2,15.5,4.4,22,9.4c6.5,4.9,11.5,11.7,14.5,19.2c2.9,7.5,3.8,15.7,1.9,23.2c-1.9-7.5-4.6-14.1-8.3-20
		c-3.7-5.9-8.2-11.1-13.7-15.2c-5.4-4.1-11.5-7.4-18.2-9.7c-0.8-0.3-1.7-0.6-2.5-0.9c-0.8-0.3-1.7-0.4-2.6-0.7
		c-0.9-0.2-1.7-0.5-2.6-0.7c-0.9-0.3-1.8-0.4-2.7-0.6c-1.8-0.3-3.6-0.8-5.4-1.1C621,85.8,619.2,85.6,617.2,85.4z"/>
	<path d="M579.4,87.6c0.9-5.5,2.4-10.9,4.2-16.1c1.8-5.3,4.1-10.4,6.8-15.4c5.5-9.9,12.3-18.8,20.1-26.9c1.9-2,4-4,6-5.9
		c2.1-1.9,4.2-3.7,6.5-5.5c0.6-0.4,1.2-0.9,1.8-1.3c0.6-0.4,1.2-0.8,1.8-1.2c0.6-0.4,1.2-0.8,1.9-1.2c0.7-0.4,1.4-0.8,2.1-1.1
		c2.9-1.4,6-2.3,9.3-2.4c0.8,0,1.6,0,2.4,0l2.1,0.1l4.1,0.3c2.7,0.2,5.5,0.5,8.2,0.7l2.1,0.2l1.3,0.2c0.4,0.1,0.8,0.3,1.3,0.4
		c1.7,0.6,3.1,2,3.7,3.6c0.7,1.6,0.6,3.3,0.1,4.7c-0.5,1.4-1.5,2.6-2.7,3.3c1.8-2.1,1.8-5.2,0.5-6.8c-0.7-0.8-1.5-1.3-2.5-1.4
		l-0.8,0l-0.8,0.1l-2,0.2c-2.7,0.3-5.5,0.5-8.2,0.7l-4.1,0.3l-2.1,0.1c-0.6,0.1-1.1,0.1-1.7,0.2c-2.2,0.4-4.3,1.3-6.3,2.4
		c-0.5,0.3-1,0.6-1.5,0.9l-1.5,1.1c-0.5,0.4-1,0.8-1.5,1.2c-0.5,0.4-1,0.8-1.5,1.2c-3.9,3.4-7.8,7.1-11.4,11
		c-7.4,7.7-14.3,15.8-20.6,24.4C590.2,68.5,584.8,78,579.4,87.6z"/>
	<path d="M602.8,164.9c1.9,5.7,5,10.1,8.9,13c3.8,2.9,8.3,4.1,13,4.1c4.7-0.1,9.2-1.3,13-4.2c3.8-2.9,6.9-7.3,8.9-12.9
		c1.9,5.8,0.4,12.8-3.9,18c-2.1,2.6-5,4.7-8.1,6.1c-0.4,0.2-0.8,0.3-1.2,0.5c-0.4,0.2-0.8,0.3-1.2,0.4c-0.8,0.2-1.6,0.5-2.5,0.6
		c-0.8,0.1-1.7,0.3-2.5,0.4l-2.5,0.1l-2.5-0.1c-0.8,0-1.7-0.2-2.5-0.4c-0.8-0.1-1.7-0.4-2.5-0.6c-0.4-0.1-0.8-0.2-1.2-0.4
		c-0.4-0.2-0.8-0.3-1.2-0.5c-3.1-1.4-6-3.5-8.1-6.1C602.5,177.6,601,170.6,602.8,164.9z"/>
</g>
<g id="snow10">
	<path d="M86.5,181.7c0.5,0.9,1.3,1.5,1.9,1.5c0.6,0,0.9-0.3,1.6-0.6c1.8-0.6,3.7-1.1,5.5-1.5c3.7-0.8,7.3-1.1,11-1.1
		c3.7,0,7.3,0.3,11,1.1l0.8,0.2c0.3,0.1,0.6,0.1,0.9,0.2c0.6,0.2,1.3,0.4,1.9,0.7c1.2,0.6,2.4,1.5,3.2,2.7c0.8,1.2,1.1,2.5,1.1,3.6
		c0,1.2-0.4,2.2-0.9,3.1c-0.5-0.9-1.1-1.7-1.7-2.2c-0.6-0.6-1.2-0.9-1.8-0.9c-0.6-0.1-1.1,0-1.6,0.1c-0.3,0.1-0.5,0.1-0.8,0.2
		c-0.1,0-0.3,0.1-0.4,0.1c-0.1,0-0.1,0-0.2,0.1l-0.3,0.1c-3.7,0.8-7.3,1.1-11,1.1c-3.7,0-7.3-0.3-11-1.1c-1.8-0.4-3.7-0.9-5.5-1.5
		l-0.2-0.1l-0.2-0.1c-0.2,0-0.3-0.1-0.5-0.2c-0.3-0.1-0.7-0.3-1-0.4c-0.6-0.4-1.2-0.9-1.6-1.5c-0.4-0.6-0.5-1.3-0.5-1.9
		C86.1,182.7,86.3,182.1,86.5,181.7z"/>
	<path d="M38.8,103.1c1.3-5.8,3.4-11,5.8-16.1c1.2-2.5,2.5-5,3.9-7.4c0.3-0.6,0.7-1.2,1-1.8l0.3-0.5l0.4-0.5
		c0.2-0.4,0.5-0.7,0.7-1.1c1-1.4,2.2-2.7,3.8-3.9c1.5-1.2,3.3-2.1,5.3-2.7c1-0.3,2.1-0.4,3.1-0.5l0.8,0l0.6,0c0.3,0,0.7,0,1,0.1
		c2.8,0.2,5.6,0.4,8.3,0.8c1.4,0.2,2.8,0.4,4.2,0.6l2.1,0.4c0.9,0.2,1.8,0.4,2.6,0.8c1.7,0.8,3.3,2.2,3.9,4c0.6,1.7,0.4,3.4-0.2,4.7
		c-0.5-1.4-1.3-2.6-2.2-3.2c-0.9-0.7-1.8-0.8-2.8-0.7c-0.5,0-1,0.1-1.5,0.3c-0.6,0.1-1.4,0.3-2,0.4c-1.4,0.2-2.8,0.5-4.2,0.6
		c-2.8,0.4-5.6,0.6-8.3,0.8c-0.3,0-0.7,0.1-1,0.1c-0.2,0-0.4,0-0.5,0l-0.2,0c-0.3,0.1-0.6,0.1-1,0.3c-0.6,0.2-1.3,0.6-2,1.1
		c-0.7,0.5-1.4,1.2-2.1,2c-0.2,0.2-0.4,0.4-0.5,0.6l-0.2,0.3L57.7,83c-0.4,0.6-0.8,1.1-1.2,1.7c-1.7,2.2-3.4,4.4-5.2,6.5
		C47.5,95.5,43.6,99.6,38.8,103.1z"/>
	<path d="M16.3,191.6c-0.5-0.9-0.9-2-0.9-3.2c0-1.2,0.3-2.5,1.1-3.6c0.8-1.2,2-2.1,3.2-2.7c0.6-0.3,1.2-0.5,1.9-0.7
		c0.3-0.1,0.6-0.1,0.9-0.2l0.8-0.2c3.7-0.8,7.4-1.1,11-1.1c3.7,0,7.4,0.3,11,1.1c1.8,0.4,3.7,0.8,5.5,1.5c0.3,0.1,0.3,0.2,0.5,0.2
		l0.4,0.2c0.2,0.1,0.5,0.2,0.8,0.2c0.6,0.1,1.4-0.5,1.9-1.5c0.3,0.5,0.4,1,0.5,1.6c0,0.6-0.1,1.3-0.5,1.9c-0.4,0.6-1,1.1-1.6,1.5
		c-0.3,0.2-0.7,0.3-1,0.4c-0.3,0.1-0.7,0.2-0.9,0.3c-1.8,0.6-3.7,1.1-5.5,1.5c-3.7,0.8-7.4,1.1-11,1.1c-3.7,0-7.4-0.3-11-1.1
		c-0.2,0-0.5-0.1-0.6-0.1c-0.1,0-0.3-0.1-0.4-0.1c-0.3-0.1-0.6-0.1-0.8-0.2c-0.5-0.1-1.1-0.2-1.6-0.1c-0.6,0.1-1.2,0.4-1.8,0.9
		C17.5,189.9,16.9,190.7,16.3,191.6z"/>
	<path d="M194.2,185c7.2-2.1,14.4-3.1,21.6-3.9c7.2-0.7,14.4-1.1,21.6-1.1l5.4,0.1c1.8,0.1,3.6,0.1,5.4,0.2c1.8,0.1,3.6,0.2,5.4,0.3
		l2.7,0.2c1.2,0.1,2.6,0.4,3.9,0.9c1.3,0.5,2.7,1.5,3.6,2.7c1,1.2,1.6,2.6,1.8,3.9c0.1,0.7,0.2,1.3,0.2,1.9c0,0.3,0,0.6,0,0.9
		c0,0.3,0,0.6-0.1,0.8l-0.4,2.7c-0.6,3.6-1.4,7.2-2.5,10.8c-1.1-3.6-1.8-7.2-2.5-10.8l-0.4-2.7c0-0.3-0.1-0.4-0.1-0.6
		c0-0.2-0.1-0.3-0.1-0.5c-0.1-0.3-0.2-0.5-0.3-0.8c-0.3-0.4-0.5-0.7-0.8-0.8c-0.3-0.1-0.5-0.2-0.9-0.2c-0.4,0-0.8,0-1.4,0.1
		l-2.7,0.2c-1.8,0.2-3.6,0.2-5.4,0.3c-1.8,0.1-3.6,0.1-5.4,0.2l-5.4,0.1c-7.2,0-14.4-0.3-21.6-1.1
		C208.7,188.1,201.5,187.1,194.2,185z"/>
	<path d="M162.1,109.7c-1.4-0.6-2.6-2-3.2-3.6c-0.6-1.6-0.7-3.4-0.3-5.1c0.2-0.9,0.5-1.6,0.7-2.4c0.3-0.7,0.5-1.5,0.8-2.2
		c0.6-1.5,1.3-2.9,2-4.3c3-5.7,7.2-10.7,12.3-14.9c5-4.2,11-7.3,17.3-9.3l2.4-0.7c0.8-0.2,1.6-0.4,2.4-0.5l2.4-0.5l2.4-0.3
		c0.8-0.1,1.6-0.2,2.5-0.3l2.5-0.1l2.5-0.1l2.4,0.1c3.3,0.1,6.5,0.5,9.8,1l4.8,1.1c1.6,0.5,3.1,1,4.7,1.6
		c6.2,2.4,11.9,5.9,16.7,10.5c4.7,4.6,8.5,10.2,10.6,16.3c2.2,6.1,2.8,12.6,1.7,18.7c-1.1-6.1-3.1-11.7-6.1-16.6
		c-3-4.9-6.9-9.1-11.3-12.4c-8.9-6.7-19.9-10-31.1-10.3c-11.2-0.5-22.3,2.1-31.8,8.1c-4.7,3-9.1,6.8-12.8,11.2
		c-0.5,0.6-1,1.1-1.4,1.7l-1.3,1.8c-0.5,0.6-0.8,1.2-1.2,1.8c-0.4,0.6-0.9,1.2-1.1,1.8c-0.6,1.1-1,2.5-0.9,3.9
		C160.5,107.2,161,108.6,162.1,109.7z"/>
	<path d="M154.9,205.4c-2.1-9.3-2.2-19.2,0.5-28.9c1.3-4.8,3.5-9.5,6.3-13.7c1.4-2.1,2.9-4.1,4.5-6.1c1.7-1.9,3.4-3.7,5.2-5.4
		c7.3-6.7,15.6-11.8,24.1-16c8.6-4.2,17.3-7.6,26.6-10c-7.4,6.1-15.1,11.4-22.6,16.8c-7.5,5.4-14.9,10.7-21.3,16.6
		c-6.5,5.9-11.8,12.6-15.4,20.5c-1.8,3.9-3.3,8.2-4.6,12.6C157,196.1,156,200.7,154.9,205.4z"/>
	<path d="M331.3,191.6c-0.5-0.8-0.9-1.8-1-2.9c-0.1-1.1,0.1-2.3,0.7-3.4c0.6-1.1,1.6-2.1,2.7-2.8c1.1-0.7,2.3-1.1,3.5-1.4l0.8-0.2
		l0.6-0.1c0.4-0.1,0.8-0.2,1.3-0.2c0.8-0.1,1.7-0.2,2.5-0.3c1.7-0.2,3.4-0.3,5.1-0.3c1.7,0,3.4,0.1,5.1,0.3c0.8,0.1,1.7,0.2,2.5,0.3
		l1.3,0.2l0.6,0.1l0.8,0.2c1.2,0.2,2.4,0.7,3.5,1.4c1.1,0.7,2.1,1.7,2.7,2.8c0.6,1.1,0.8,2.4,0.7,3.4c-0.1,1.1-0.5,2.1-1,2.9
		c-0.5-0.8-1.1-1.6-1.7-2.1c-0.6-0.5-1.2-0.8-1.7-0.9c-1-0.2-1.8,0.1-2.9,0.4c-0.2,0-0.2,0.1-0.4,0.1l-0.6,0.1l-1.3,0.2
		c-0.8,0.1-1.7,0.2-2.5,0.3c-1.7,0.2-3.4,0.3-5.1,0.3c-1.7,0-3.4-0.1-5.1-0.3c-0.8-0.1-1.7-0.2-2.5-0.3c-0.4-0.1-0.8-0.1-1.3-0.2
		l-0.6-0.1c-0.2,0-0.3-0.1-0.4-0.1c-1.1-0.3-1.9-0.6-2.9-0.4c-0.5,0.1-1.1,0.4-1.7,1C332.4,190,331.9,190.7,331.3,191.6z"/>
	<path d="M471.4,185c7.2-2.1,14.4-3.1,21.6-3.9c7.2-0.7,14.4-1.1,21.6-1.1l5.4,0.1c1.8,0.1,3.6,0.1,5.4,0.2c1.8,0.1,3.6,0.2,5.4,0.3
		l2.7,0.2c1.2,0.1,2.6,0.4,3.9,0.9c1.3,0.5,2.7,1.5,3.6,2.7c1,1.2,1.6,2.6,1.8,3.9c0.1,0.7,0.2,1.3,0.2,1.9c0,0.3,0,0.6,0,0.9
		c0,0.3,0,0.6-0.1,0.8l-0.4,2.7c-0.6,3.6-1.4,7.2-2.5,10.8c-1.1-3.6-1.8-7.2-2.5-10.8l-0.4-2.7c0-0.3-0.1-0.4-0.1-0.6
		c0-0.2-0.1-0.3-0.1-0.5c-0.1-0.3-0.2-0.5-0.3-0.8c-0.3-0.4-0.5-0.7-0.8-0.8c-0.3-0.1-0.5-0.2-0.9-0.2c-0.4,0-0.8,0-1.4,0.1
		l-2.7,0.2c-1.8,0.2-3.6,0.2-5.4,0.3c-1.8,0.1-3.6,0.1-5.4,0.2l-5.4,0.1c-7.2,0-14.4-0.3-21.6-1.1
		C485.9,188.1,478.6,187.1,471.4,185z"/>
	<path d="M439.3,109.7c-1.4-0.6-2.6-2-3.2-3.6c-0.6-1.6-0.7-3.4-0.3-5.1c0.2-0.9,0.5-1.6,0.7-2.4c0.3-0.7,0.5-1.5,0.8-2.2
		c0.6-1.5,1.3-2.9,2-4.3c3-5.7,7.2-10.7,12.3-14.9c5-4.2,11-7.3,17.3-9.3l2.4-0.7c0.8-0.2,1.6-0.4,2.4-0.5l2.4-0.5l2.4-0.3
		c0.8-0.1,1.6-0.2,2.5-0.3l2.5-0.1l2.5-0.1l2.4,0.1c3.3,0.1,6.5,0.5,9.8,1l4.8,1.1c1.6,0.5,3.1,1,4.7,1.6
		c6.2,2.4,11.9,5.9,16.7,10.5c4.7,4.6,8.5,10.2,10.6,16.3c2.2,6.1,2.8,12.6,1.7,18.7c-1.1-6.1-3.1-11.7-6.1-16.6
		c-3-4.9-6.9-9.1-11.3-12.4c-8.9-6.7-19.9-10-31.1-10.3c-11.2-0.5-22.3,2.1-31.8,8.1c-4.7,3-9.1,6.8-12.8,11.2
		c-0.5,0.6-1,1.1-1.4,1.7l-1.3,1.8c-0.5,0.6-0.8,1.2-1.2,1.8c-0.4,0.6-0.9,1.2-1.1,1.8c-0.6,1.1-1,2.5-0.9,3.9
		C437.7,107.2,438.2,108.6,439.3,109.7z"/>
	<path d="M438.7,212c-1.3,0.3-2.7,0.3-4.1-0.2c-1.4-0.5-2.6-1.6-3.4-3c-0.3-0.7-0.6-1.4-0.8-2.2c-0.1-0.4-0.1-0.7-0.2-1.1l-0.1-1
		l-0.4-3.9c-0.4-5.2-0.3-10.6,0.5-16c0.8-5.4,2.4-10.7,4.9-15.7l0.4-0.9l0.5-0.9l1-1.8c0.7-1.2,1.5-2.3,2.3-3.5
		c0.4-0.6,0.8-1.2,1.2-1.7l1.3-1.6l1.3-1.6c0.4-0.5,0.9-1,1.4-1.5c1.9-2,3.9-3.8,5.9-5.6l3.1-2.5c1-0.8,2.1-1.6,3.2-2.4
		c4.4-3,8.9-5.8,13.5-8.1c4.6-2.4,9.4-4.5,14.2-6.4c4.8-1.9,9.7-3.6,14.8-5c-8.1,6.5-16.7,12.2-24.8,18.1c-2,1.5-4.1,2.9-6.1,4.4
		l-2.9,2.3l-1.5,1.1l-1.4,1.2c-3.8,3.1-7.5,6.3-10.7,9.8c-0.4,0.4-0.8,0.8-1.2,1.3l-1.1,1.3l-1.1,1.3c-0.4,0.5-0.7,0.9-1.1,1.4
		c-1.5,1.8-2.7,3.8-3.9,5.8c-2.3,4-4.2,8.4-5.6,13c-1.4,4.6-2.4,9.5-3.2,14.4l-0.6,3.8l-0.2,0.9c0,0.3-0.1,0.5-0.1,0.8
		c0,0.5,0,1,0.1,1.6c0.2,1,0.6,2,1.5,2.7C436.3,211.3,437.5,211.7,438.7,212z"/>
	<path d="M617.2,85.4c1.8-0.8,3.6-1.5,5.5-1.9c1.9-0.5,3.8-0.7,5.8-0.9c1-0.1,2-0.3,2.9-0.3c1,0,2,0,3,0c1,0,2,0,3,0.1
		c1,0.1,2,0.2,3,0.4c7.9,1.2,15.7,4.4,22.2,9.4c6.6,4.9,11.6,11.8,14.5,19.4c2.9,7.6,3.7,15.9,1.6,23.4c-2.1-7.5-4.9-14-8.6-19.9
		c-3.7-5.8-8.2-10.9-13.6-15c-5.3-4.1-11.4-7.3-18-9.7c-0.8-0.3-1.7-0.6-2.5-0.9c-0.8-0.3-1.7-0.5-2.6-0.7c-0.9-0.3-1.7-0.5-2.6-0.8
		c-0.9-0.3-1.8-0.4-2.6-0.6c-1.8-0.4-3.6-0.9-5.4-1.2C621,85.9,619.2,85.6,617.2,85.4z"/>
	<path d="M579.4,87.6c0.8-5.5,2.2-10.9,4-16.2c1.8-5.3,4-10.5,6.7-15.5c5.4-9.9,12.3-18.9,20-27.1c2-2,4-4,6.1-5.9
		c2.1-1.9,4.3-3.8,6.6-5.5c0.6-0.4,1.2-0.9,1.8-1.3c0.6-0.4,1.2-0.8,1.8-1.2c0.6-0.4,1.2-0.8,1.9-1.2c0.7-0.4,1.4-0.8,2.1-1.1
		c2.9-1.4,6.1-2.3,9.4-2.4c0.8,0,1.7,0,2.4,0l2.1,0.2c1.4,0.1,2.7,0.2,4.1,0.3c2.7,0.2,5.5,0.5,8.2,0.8l2.1,0.2L660,12
		c0.4,0.1,0.9,0.3,1.3,0.4c1.7,0.6,3.2,2.1,3.8,3.7c0.7,1.6,0.6,3.4,0,4.8c-0.6,1.4-1.6,2.6-2.8,3.3c1.7-2.2,1.7-5.2,0.3-6.8
		c-0.7-0.8-1.5-1.2-2.5-1.3l-0.7,0l-0.7,0.1l-2,0.2c-2.7,0.3-5.5,0.6-8.2,0.8c-1.4,0.1-2.7,0.2-4.1,0.3l-2.1,0.2
		c-0.6,0.1-1.1,0.1-1.6,0.2c-2.1,0.4-4.2,1.3-6.1,2.4c-0.5,0.3-1,0.6-1.4,0.9l-1.5,1.1c-0.5,0.4-1,0.8-1.5,1.2
		c-0.5,0.4-1,0.8-1.5,1.2c-2,1.7-3.9,3.5-5.8,5.3c-1.9,1.8-3.8,3.7-5.6,5.6c-7.3,7.7-14.3,15.8-20.6,24.3
		C590.4,68.6,585,78,579.4,87.6z"/>
	<path d="M602.8,164.9c2.1,5.7,5.3,9.9,9.1,12.7c3.8,2.8,8.1,3.9,12.8,3.9c4.6-0.1,8.9-1.2,12.7-3.9c3.8-2.8,7-7,9.2-12.7
		c2.1,5.8,0.7,12.9-3.6,18.2c-2.1,2.7-5,4.8-8.2,6.3c-3.2,1.4-6.7,2.1-10.1,2.1c-3.4,0-6.9-0.7-10.1-2.1c-3.2-1.4-6.1-3.6-8.2-6.3
		C602.2,177.8,600.7,170.6,602.8,164.9z"/>
</g>
<g id="snow11">
	<path d="M86.5,181.7c0.6,0.9,1.4,1.5,2,1.4c0.3,0,0.5-0.2,0.7-0.3l0.3-0.2l0.2-0.1l0.1-0.1l0.2-0.1c1.8-0.7,3.7-1.2,5.5-1.6
		c3.7-0.8,7.3-1.2,11-1.2c3.7,0,7.3,0.4,11,1.2l0.8,0.2c0.3,0.1,0.6,0.1,1,0.2c0.6,0.2,1.3,0.4,1.9,0.7c1.3,0.6,2.4,1.6,3.2,2.8
		c0.8,1.2,1.1,2.6,1,3.8c0,1.2-0.5,2.3-1,3.2c-0.6-0.9-1.2-1.7-1.9-2.2c-0.6-0.5-1.3-0.8-1.8-0.8c-0.5,0-1,0.1-1.5,0.2
		c-0.3,0.1-0.5,0.1-0.8,0.2c-0.1,0-0.3,0.1-0.4,0.2c-0.1,0-0.1,0.1-0.2,0.1l-0.3,0.1c-3.7,0.8-7.3,1.2-11,1.2c-3.7,0-7.3-0.4-11-1.2
		c-1.8-0.4-3.7-0.9-5.5-1.6l-0.2-0.1l-0.3-0.1c-0.2-0.1-0.3-0.1-0.5-0.2c-0.3-0.1-0.7-0.3-1-0.5c-0.6-0.4-1.3-0.9-1.6-1.6
		c-0.4-0.7-0.5-1.4-0.5-2C86.1,182.7,86.2,182.1,86.5,181.7z"/>
	<path d="M38.8,103.1c1.1-5.9,3.2-11.2,5.5-16.3c1.2-2.6,2.4-5.1,3.8-7.5l1-1.8l0.3-0.5l0.4-0.6c0.2-0.4,0.5-0.7,0.8-1.1
		c1-1.4,2.3-2.8,3.8-4c1.5-1.2,3.4-2.2,5.5-2.8c1-0.3,2.1-0.4,3.2-0.5l0.8,0l0.6,0l1,0.1c2.8,0.2,5.6,0.5,8.3,0.9
		c1.4,0.2,2.8,0.4,4.2,0.7l2.1,0.4c0.9,0.2,1.8,0.4,2.7,0.8c0.9,0.4,1.7,1,2.4,1.7c0.7,0.7,1.2,1.6,1.5,2.4c0.6,1.8,0.3,3.4-0.3,4.8
		c-0.6-1.4-1.4-2.6-2.3-3.2c-0.9-0.6-1.8-0.7-2.7-0.5c-0.5,0.1-0.9,0.1-1.4,0.3c-0.6,0.1-1.4,0.3-2,0.4c-1.4,0.3-2.8,0.5-4.2,0.7
		c-2.8,0.4-5.6,0.7-8.3,0.9l-1,0.1c-0.2,0-0.4,0-0.5,0l-0.2,0c-0.3,0.1-0.6,0.1-0.9,0.2c-0.6,0.2-1.2,0.6-1.8,1.1
		c-0.7,0.5-1.3,1.2-2,1.9c-0.2,0.2-0.3,0.4-0.5,0.6l-0.2,0.3l-0.3,0.4L56.8,85c-1.7,2.2-3.4,4.4-5.3,6.5
		C47.8,95.6,43.8,99.7,38.8,103.1z"/>
	<path d="M16.3,191.6c-0.6-0.9-1-2-1-3.2c-0.1-1.2,0.3-2.6,1.1-3.8c0.8-1.2,2-2.2,3.3-2.8c0.6-0.3,1.3-0.6,1.9-0.7
		c0.3-0.1,0.6-0.2,1-0.2l0.8-0.2c3.7-0.8,7.4-1.2,11-1.2c3.7,0,7.4,0.4,11,1.2c1.8,0.4,3.7,0.9,5.5,1.6c0.3,0.1,0.3,0.2,0.5,0.3
		l0.3,0.2c0.2,0.1,0.4,0.3,0.7,0.3c0.6,0.1,1.4-0.4,2-1.4c0.3,0.5,0.5,1,0.6,1.6c0.1,0.6-0.1,1.4-0.5,2c-0.4,0.7-1,1.2-1.7,1.6
		c-0.3,0.2-0.7,0.3-1,0.5c-0.3,0.1-0.7,0.2-0.9,0.3c-1.8,0.7-3.7,1.2-5.5,1.6c-3.7,0.8-7.4,1.2-11,1.2c-3.7,0-7.4-0.4-11-1.2
		c-0.2-0.1-0.5-0.1-0.6-0.2c-0.1,0-0.3-0.1-0.4-0.2l-0.8-0.2c-0.5-0.1-1-0.2-1.5-0.2c-0.6,0-1.2,0.3-1.8,0.8
		C17.6,189.9,16.9,190.7,16.3,191.6z"/>
	<path d="M194.2,185c7.2-2.3,14.4-3.4,21.6-4.3c7.2-0.8,14.4-1.2,21.6-1.2l5.4,0.1c1.8,0.1,3.6,0.1,5.4,0.2c1.8,0.1,3.6,0.2,5.4,0.4
		l2.7,0.2c1.3,0.1,2.7,0.4,4,0.9c1.4,0.6,2.8,1.5,3.8,2.8c1,1.3,1.6,2.7,1.8,4.1c0.1,0.7,0.2,1.3,0.2,2c0,0.3,0,0.6,0,0.9
		c0,0.3-0.1,0.6-0.1,0.8l-0.5,2.7c-0.7,3.6-1.5,7.2-2.7,10.8c-1.2-3.6-2-7.2-2.7-10.8l-0.5-2.7c0-0.3-0.1-0.4-0.1-0.5
		c0-0.2-0.1-0.3-0.1-0.4c-0.1-0.3-0.2-0.5-0.3-0.7c-0.3-0.4-0.5-0.6-0.7-0.6c-0.2-0.1-0.4-0.1-0.7-0.1c-0.3,0-0.8,0-1.3,0.1
		l-2.7,0.2c-1.8,0.2-3.6,0.3-5.4,0.4c-1.8,0.1-3.6,0.1-5.4,0.2l-5.4,0.1c-7.2,0-14.4-0.4-21.6-1.2
		C208.7,188.4,201.5,187.3,194.2,185z"/>
	<path d="M162.1,109.7c-1.5-0.6-2.6-2-3.2-3.5c-0.6-1.6-0.7-3.4-0.3-5.2c0.2-0.9,0.5-1.6,0.7-2.4c0.3-0.7,0.5-1.5,0.8-2.2
		c0.6-1.5,1.2-2.9,2-4.4c2.9-5.7,7.2-10.8,12.3-15c5-4.3,11.1-7.4,17.4-9.4l2.4-0.7c0.8-0.2,1.6-0.4,2.4-0.5l2.4-0.5l2.5-0.3
		c0.8-0.1,1.6-0.2,2.5-0.3l2.5-0.1l2.5-0.1l2.5,0.1c3.3,0.1,6.6,0.5,9.8,1.1l4.8,1.2c1.6,0.5,3.2,1,4.7,1.6c6.2,2.4,12,6,16.8,10.7
		c4.8,4.7,8.5,10.4,10.6,16.5c2.1,6.1,2.7,12.7,1.5,18.8c-1.2-6.1-3.3-11.7-6.4-16.5c-3-4.9-6.9-9-11.3-12.2
		c-8.9-6.6-19.8-9.8-30.9-10.1c-11.1-0.4-22.1,2-31.6,7.9c-4.7,2.9-9.1,6.6-12.9,11.1c-0.5,0.6-1,1.1-1.4,1.7l-1.3,1.7
		c-0.5,0.6-0.8,1.2-1.3,1.8c-0.4,0.6-0.9,1.2-1.2,1.8c-0.6,1.1-1,2.4-0.9,3.8C160.5,107.2,161.1,108.6,162.1,109.7z"/>
	<path d="M154.9,205.4c-1.2-4.7-1.8-9.5-1.8-14.3c0-4.9,0.6-9.8,1.9-14.7c1.3-4.9,3.5-9.6,6.3-13.9c1.4-2.2,2.9-4.2,4.6-6.1
		c1.7-1.9,3.4-3.7,5.2-5.4c7.3-6.8,15.7-11.8,24.2-16c8.6-4.1,17.5-7.5,26.8-9.7c-3.6,3.2-7.4,6-11.1,8.9c-3.8,2.8-7.5,5.5-11.3,8.2
		c-7.4,5.4-14.8,10.7-21.2,16.6c-6.4,5.9-11.7,12.5-15.4,20.3c-1.9,3.9-3.4,8.1-4.7,12.5C157.2,196.2,156.1,200.7,154.9,205.4z"/>
	<path d="M331.3,191.6c-0.6-0.8-1-1.8-1.1-2.9c-0.1-1.1,0.1-2.4,0.7-3.6c0.6-1.2,1.6-2.2,2.8-3c1.1-0.7,2.4-1.2,3.6-1.4l1.5-0.3
		l1.3-0.2c0.8-0.1,1.7-0.3,2.5-0.4c1.7-0.2,3.4-0.3,5.1-0.3c1.7,0,3.4,0.1,5.1,0.3c0.8,0.1,1.7,0.2,2.5,0.4l1.3,0.2l1.5,0.3
		c1.2,0.3,2.4,0.7,3.6,1.4c1.1,0.7,2.2,1.8,2.8,3c0.6,1.2,0.8,2.5,0.7,3.6c-0.1,1.1-0.5,2.1-1.1,2.9c-0.6-0.8-1.2-1.5-1.8-2
		c-0.6-0.5-1.2-0.8-1.7-0.8c-0.5-0.1-1,0-1.4,0.1c-0.4,0.1-0.9,0.3-1.4,0.5c-0.1,0-0.2,0.1-0.4,0.1l-0.6,0.1l-1.3,0.2
		c-0.8,0.1-1.7,0.3-2.5,0.4c-1.7,0.2-3.4,0.3-5.1,0.3c-1.7,0-3.4-0.1-5.1-0.3c-0.8-0.1-1.7-0.2-2.5-0.4l-1.3-0.2l-0.6-0.1
		c-0.2,0-0.3-0.1-0.4-0.1c-0.5-0.2-0.9-0.3-1.4-0.5c-0.4-0.1-0.9-0.2-1.4-0.1c-0.5,0.1-1.1,0.3-1.7,0.8
		C332.5,190,331.9,190.7,331.3,191.6z"/>
	<path d="M471.4,185c7.2-2.3,14.4-3.4,21.6-4.3c7.2-0.8,14.4-1.2,21.6-1.2l5.4,0.1c1.8,0.1,3.6,0.1,5.4,0.2c1.8,0.1,3.6,0.2,5.4,0.4
		l2.7,0.2c1.3,0.1,2.7,0.4,4,0.9c1.4,0.6,2.8,1.5,3.8,2.8c1,1.3,1.6,2.7,1.8,4.1c0.1,0.7,0.2,1.3,0.2,2c0,0.3,0,0.6,0,0.9
		c0,0.3-0.1,0.6-0.1,0.8l-0.5,2.7c-0.7,3.6-1.5,7.2-2.7,10.8c-1.2-3.6-2-7.2-2.7-10.8l-0.5-2.7c0-0.3-0.1-0.4-0.1-0.5
		c0-0.2-0.1-0.3-0.1-0.4c-0.1-0.3-0.2-0.5-0.3-0.7c-0.3-0.4-0.5-0.6-0.7-0.6c-0.2-0.1-0.4-0.1-0.7-0.1c-0.3,0-0.8,0-1.3,0.1
		l-2.7,0.2c-1.8,0.2-3.6,0.3-5.4,0.4c-1.8,0.1-3.6,0.1-5.4,0.2l-5.4,0.1c-7.2,0-14.4-0.4-21.6-1.2
		C485.9,188.4,478.6,187.3,471.4,185z"/>
	<path d="M439.3,109.7c-1.5-0.6-2.6-2-3.2-3.5c-0.6-1.6-0.7-3.4-0.3-5.2c0.2-0.9,0.5-1.6,0.7-2.4c0.3-0.7,0.5-1.5,0.8-2.2
		c0.6-1.5,1.2-2.9,2-4.4c2.9-5.7,7.2-10.8,12.3-15c5-4.3,11.1-7.4,17.4-9.4l2.4-0.7c0.8-0.2,1.6-0.4,2.4-0.5l2.4-0.5l2.5-0.3
		c0.8-0.1,1.6-0.2,2.5-0.3l2.5-0.1l2.5-0.1l2.5,0.1c3.3,0.1,6.6,0.5,9.8,1.1l4.8,1.2c1.6,0.5,3.2,1,4.7,1.6c6.2,2.4,12,6,16.8,10.7
		c4.8,4.7,8.5,10.4,10.6,16.5c2.1,6.1,2.7,12.7,1.5,18.8c-1.2-6.1-3.3-11.7-6.4-16.5c-3-4.9-6.9-9-11.3-12.2
		c-8.9-6.6-19.8-9.8-30.9-10.1c-11.1-0.4-22.1,2-31.6,7.9c-4.7,2.9-9.1,6.6-12.9,11.1c-0.5,0.6-1,1.1-1.4,1.7l-1.3,1.7
		c-0.5,0.6-0.8,1.2-1.3,1.8c-0.4,0.6-0.9,1.2-1.2,1.8c-0.6,1.1-1,2.4-0.9,3.8C437.7,107.2,438.2,108.6,439.3,109.7z"/>
	<path d="M438.7,212c-1.3,0.3-2.7,0.4-4.1-0.1c-1.4-0.5-2.7-1.6-3.5-3c-0.4-0.7-0.7-1.5-0.8-2.2c-0.1-0.4-0.1-0.8-0.2-1.1l-0.1-1
		l-0.5-3.9c-0.5-5.3-0.4-10.6,0.3-16c0.7-5.4,2.4-10.8,4.8-15.9l0.4-1l0.5-0.9l1-1.8c0.7-1.2,1.5-2.4,2.3-3.5
		c0.4-0.6,0.8-1.2,1.2-1.7l1.3-1.6l1.3-1.6c0.5-0.5,0.9-1,1.4-1.5c1.9-2,3.9-3.9,5.9-5.7l3.2-2.5c1.1-0.8,2.1-1.6,3.2-2.4
		c4.4-3,8.9-5.8,13.6-8.1c4.7-2.4,9.4-4.5,14.3-6.3c4.9-1.8,9.8-3.5,14.9-4.7c-8.1,6.7-16.5,12.5-24.6,18.4c-2,1.5-4,3-6,4.5
		c-1,0.8-1.9,1.5-2.9,2.3l-1.5,1.1l-1.4,1.2c-3.8,3.1-7.4,6.3-10.6,9.7c-0.4,0.4-0.8,0.8-1.2,1.3l-1.1,1.3l-1.1,1.3
		c-0.4,0.4-0.7,0.9-1,1.4c-1.5,1.8-2.7,3.8-3.9,5.7c-2.3,4-4.2,8.3-5.6,12.9c-1.4,4.6-2.5,9.4-3.4,14.4l-0.6,3.7l-0.2,0.9
		c0,0.3-0.1,0.5-0.1,0.8c-0.1,0.5,0,1,0,1.5c0.1,1,0.5,1.9,1.4,2.7C436.3,211.2,437.5,211.7,438.7,212z"/>
	<path d="M617.2,85.4c1.8-0.9,3.6-1.6,5.5-2.1c1.9-0.6,3.9-0.8,5.8-1c1-0.1,2-0.3,3-0.3c1,0,2,0,3,0c1,0,2,0,3,0.1
		c1,0.1,2,0.2,3,0.4c8,1.1,15.9,4.3,22.4,9.4c6.6,5,11.7,12,14.6,19.6c2.8,7.6,3.5,16,1.2,23.5c-2.4-7.5-5.2-14-9-19.7
		c-3.7-5.7-8.3-10.7-13.6-14.7c-5.3-4.1-11.2-7.3-17.8-9.7c-0.8-0.3-1.6-0.6-2.5-0.9c-0.8-0.3-1.7-0.5-2.5-0.8
		c-0.8-0.3-1.7-0.5-2.6-0.8c-0.9-0.3-1.7-0.4-2.6-0.6c-1.8-0.4-3.6-1-5.4-1.3C621.1,86,619.2,85.7,617.2,85.4z"/>
	<path d="M579.4,87.6c0.7-5.6,2-11,3.7-16.3c1.7-5.3,3.9-10.5,6.6-15.6c5.4-10,12.2-19,20-27.2c2-2,4-4,6.1-5.9
		c2.1-1.9,4.3-3.8,6.6-5.5c0.6-0.4,1.2-0.9,1.8-1.3c0.6-0.4,1.2-0.8,1.8-1.2c0.6-0.4,1.2-0.8,1.9-1.2c0.7-0.4,1.4-0.8,2.2-1.1
		c1.5-0.7,3-1.3,4.6-1.7c1.6-0.4,3.3-0.7,5-0.7c0.8,0,1.7,0,2.5,0l2.1,0.2c1.4,0.1,2.7,0.2,4.1,0.4c2.7,0.3,5.5,0.6,8.2,0.9l2.1,0.3
		l1.3,0.2c0.4,0.1,0.9,0.3,1.3,0.4c1.7,0.7,3.2,2.1,3.9,3.8c0.7,1.7,0.6,3.4,0,4.9c-0.6,1.4-1.6,2.6-2.9,3.3
		c1.7-2.2,1.6-5.2,0.2-6.7c-0.7-0.7-1.5-1.1-2.4-1.2l-0.7,0l-0.7,0.1l-2,0.3c-2.7,0.3-5.5,0.6-8.2,0.9c-1.4,0.1-2.7,0.3-4.1,0.4
		l-2.1,0.2c-0.6,0.1-1.1,0.1-1.6,0.2c-2.1,0.4-4.1,1.3-6,2.4c-0.5,0.3-0.9,0.6-1.4,0.9l-1.4,1.1c-0.5,0.4-1,0.8-1.5,1.2
		c-0.5,0.4-1,0.8-1.5,1.2c-1.9,1.7-3.9,3.5-5.7,5.3c-1.9,1.8-3.8,3.7-5.6,5.6c-7.3,7.6-14.3,15.7-20.6,24.2
		C590.7,68.8,585.2,78.1,579.4,87.6z"/>
	<path d="M602.8,164.9c2.4,5.7,5.6,9.8,9.4,12.4c3.8,2.6,7.9,3.6,12.5,3.7c4.5-0.1,8.7-1.1,12.5-3.7c3.8-2.6,7.1-6.7,9.4-12.4
		c2.3,5.8,1,13.1-3.3,18.5c-2.1,2.7-5.1,5-8.3,6.4c-3.3,1.5-6.8,2.1-10.3,2.2c-3.4,0-7-0.7-10.3-2.2c-3.3-1.5-6.2-3.7-8.3-6.4
		C601.9,177.9,600.5,170.7,602.8,164.9z"/>
</g>
<g id="snow12">
	<path d="M86.5,181.7c0.6,0.9,1.5,1.5,2.1,1.3c0.3-0.1,0.5-0.2,0.7-0.4l0.3-0.3l0.2-0.1l0.1-0.1L90,182c1.8-0.7,3.7-1.3,5.5-1.8
		c3.7-0.9,7.3-1.3,11-1.3c3.7,0,7.3,0.4,11,1.3l0.3,0.1l0.5,0.1c0.3,0.1,0.6,0.1,1,0.3c0.7,0.2,1.3,0.5,2,0.8
		c1.3,0.7,2.5,1.7,3.3,2.9c0.8,1.3,1.1,2.7,1,3.9c-0.1,1.2-0.5,2.3-1.2,3.2c-0.7-0.9-1.3-1.7-2-2.2c-0.7-0.5-1.3-0.7-1.9-0.7
		c-0.5,0-1,0.2-1.4,0.3c-0.2,0.1-0.5,0.2-0.7,0.3c-0.1,0-0.3,0.1-0.4,0.2l-0.2,0.1l-0.3,0.1c-3.7,0.9-7.3,1.3-11,1.3
		c-3.7,0-7.3-0.4-11-1.3c-1.8-0.4-3.7-1-5.5-1.8l-0.2-0.1l-0.3-0.1c-0.2-0.1-0.3-0.1-0.5-0.2c-0.3-0.1-0.7-0.3-1-0.5
		c-0.7-0.4-1.3-1-1.7-1.7c-0.4-0.7-0.5-1.4-0.4-2.1C86,182.7,86.2,182.1,86.5,181.7z"/>
	<path d="M38.8,103.1c0.9-6,2.9-11.4,5.2-16.6c1.1-2.6,2.4-5.1,3.7-7.5l1-1.8l0.3-0.5l0.4-0.6c0.2-0.4,0.5-0.7,0.8-1.1
		c1.1-1.4,2.3-2.8,3.9-4.1c1.6-1.2,3.5-2.3,5.7-2.9c1.1-0.3,2.2-0.5,3.3-0.5l0.9,0c0.3,0,0.4,0,0.6,0l1,0.1c2.8,0.2,5.6,0.5,8.3,1
		c1.4,0.2,2.8,0.5,4.2,0.8l2.1,0.5c0.9,0.2,1.9,0.5,2.8,0.9c0.9,0.4,1.8,1,2.5,1.8c0.7,0.7,1.2,1.6,1.5,2.5c0.6,1.8,0.2,3.5-0.4,4.9
		c-0.6-1.4-1.5-2.5-2.4-3.1c-0.9-0.5-1.8-0.5-2.7-0.4c-0.5,0.1-0.9,0.2-1.4,0.4c-0.1,0-0.3,0.1-0.5,0.1l-0.5,0.1l-1,0.2
		c-1.4,0.3-2.8,0.6-4.2,0.8c-2.8,0.5-5.6,0.8-8.3,1l-1,0.1c-0.2,0-0.4,0-0.5,0c-0.1,0-0.1,0-0.2,0c-0.3,0.1-0.5,0.1-0.7,0.2
		c-0.5,0.2-1.1,0.5-1.7,1c-0.6,0.5-1.3,1.1-1.9,1.8c-0.2,0.2-0.3,0.4-0.5,0.6l-0.2,0.3c-0.1,0.1-0.2,0.3-0.3,0.4l-1.2,1.7
		c-1.7,2.2-3.5,4.4-5.4,6.4C48.1,95.8,44,99.8,38.8,103.1z"/>
	<path d="M16.3,191.6c-0.6-0.9-1.1-2-1.2-3.3c-0.1-1.2,0.2-2.7,1.1-3.9c0.8-1.3,2.1-2.3,3.4-2.9c0.6-0.3,1.3-0.6,2-0.8
		c0.3-0.1,0.7-0.2,1-0.2l0.8-0.2c3.7-0.9,7.4-1.3,11-1.3c3.7,0,7.4,0.4,11,1.3c1.8,0.4,3.7,1,5.5,1.8c0.3,0.1,0.3,0.2,0.4,0.3
		l0.3,0.3c0.2,0.2,0.4,0.3,0.7,0.4c0.6,0.2,1.4-0.3,2.1-1.3c0.3,0.5,0.5,1,0.7,1.7c0.1,0.6-0.1,1.4-0.5,2.1c-0.4,0.7-1,1.3-1.7,1.7
		c-0.3,0.2-0.7,0.4-1,0.5c-0.3,0.1-0.8,0.2-0.9,0.3c-1.8,0.7-3.7,1.3-5.5,1.8c-3.7,0.9-7.4,1.3-11,1.3c-3.7,0-7.4-0.4-11-1.3
		c-0.2-0.1-0.5-0.1-0.6-0.2c-0.1-0.1-0.3-0.1-0.4-0.2l-0.7-0.3c-0.5-0.2-0.9-0.3-1.5-0.3c-0.5,0-1.2,0.2-1.9,0.7
		C17.7,189.9,17,190.7,16.3,191.6z"/>
	<path d="M194.2,185c7.2-2.5,14.4-3.8,21.6-4.7c7.2-0.9,14.4-1.3,21.6-1.3c3.6,0,7.2,0.1,10.8,0.3c1.8,0.1,3.6,0.2,5.4,0.4l2.7,0.3
		c1.3,0.1,2.7,0.4,4.2,1c1.4,0.6,2.9,1.6,3.9,2.9c1,1.3,1.7,2.8,1.9,4.2c0.1,0.7,0.2,1.4,0.2,2c0,0.3,0,0.6,0,0.9
		c0,0.3-0.1,0.6-0.1,0.8l-0.5,2.7c-0.8,3.6-1.6,7.2-2.9,10.8c-1.3-3.6-2.2-7.2-2.9-10.8l-0.5-2.7c0-0.3-0.1-0.4-0.1-0.5
		c0-0.1-0.1-0.3-0.1-0.4c-0.1-0.3-0.2-0.5-0.4-0.6c-0.3-0.3-0.5-0.5-0.7-0.5c-0.2,0-0.3,0-0.6,0.1c-0.3,0-0.7,0-1.2,0.2l-2.7,0.3
		c-1.8,0.2-3.6,0.3-5.4,0.4c-3.6,0.2-7.2,0.3-10.8,0.3c-7.2,0-14.4-0.4-21.6-1.3C208.7,188.7,201.5,187.5,194.2,185z"/>
	<path d="M162.1,109.7c-1.5-0.5-2.7-1.9-3.3-3.5c-0.6-1.6-0.8-3.5-0.4-5.2c0.2-0.9,0.5-1.7,0.7-2.4c0.3-0.7,0.5-1.5,0.8-2.3
		c0.6-1.5,1.2-3,2-4.4c2.9-5.8,7.2-10.9,12.2-15.2c5.1-4.3,11.1-7.5,17.5-9.6c6.4-2,13.2-2.9,19.8-2.6l2.5,0.1c0.4,0,0.8,0,1.2,0.1
		l1.2,0.2c1.6,0.2,3.3,0.4,4.9,0.7l4.9,1.2c1.6,0.5,3.2,1.1,4.8,1.6c6.2,2.5,12.1,6.1,16.9,10.8c4.8,4.7,8.5,10.5,10.5,16.7
		c2.1,6.2,2.6,12.8,1.2,18.9c-1.3-6.1-3.5-11.6-6.6-16.4c-3.1-4.8-6.9-8.8-11.4-12.1c-8.8-6.4-19.6-9.6-30.7-9.9
		c-11-0.4-21.9,1.9-31.3,7.8c-4.7,2.9-9.1,6.5-12.9,10.9c-0.5,0.5-1,1.1-1.4,1.6l-1.3,1.7c-0.5,0.6-0.8,1.2-1.3,1.8
		c-0.4,0.6-0.9,1.2-1.2,1.7c-0.6,1.1-1,2.4-1,3.7C160.6,107.1,161.1,108.5,162.1,109.7z"/>
	<path d="M154.9,205.4c-1.3-4.7-1.9-9.5-2-14.4c-0.1-4.9,0.5-9.9,1.8-14.8c0.3-1.2,0.7-2.4,1.1-3.7c0.5-1.2,0.9-2.4,1.4-3.6
		c0.5-1.2,1.1-2.4,1.7-3.5c0.6-1.1,1.3-2.2,2-3.3c2.8-4.3,6.2-8.2,9.8-11.6c7.4-6.8,15.8-11.8,24.4-16c8.7-4.1,17.6-7.3,27-9.3
		c-3.6,3.3-7.3,6.2-11,9.1c-3.7,2.9-7.5,5.6-11.2,8.3c-7.4,5.5-14.7,10.8-21,16.7c-6.4,5.9-11.6,12.3-15.4,20.1
		c-1.9,3.9-3.4,8-4.8,12.4C157.3,196.2,156.3,200.7,154.9,205.4z"/>
	<path d="M331.3,191.6c-0.6-0.8-1.1-1.8-1.2-3c-0.2-1.1,0-2.4,0.6-3.7c0.6-1.2,1.6-2.3,2.8-3.1c1.2-0.8,2.4-1.2,3.7-1.5l0.9-0.2
		l0.6-0.1l1.3-0.3c0.8-0.2,1.7-0.3,2.5-0.4c1.7-0.2,3.4-0.3,5.1-0.3c1.7,0,3.4,0.1,5.1,0.3c0.8,0.1,1.7,0.2,2.5,0.4l1.3,0.3l0.6,0.2
		l0.9,0.2c1.2,0.3,2.5,0.8,3.7,1.5c1.2,0.8,2.2,1.9,2.8,3.1c0.6,1.2,0.8,2.5,0.6,3.7c-0.1,1.1-0.6,2.1-1.3,3c-0.7-0.8-1.3-1.5-1.9-2
		c-0.6-0.5-1.3-0.7-1.8-0.7c-1,0-1.6,0.5-2.6,0.8c-0.1,0.1-0.2,0.1-0.4,0.2l-0.6,0.2l-1.3,0.3c-0.8,0.2-1.7,0.3-2.5,0.4
		c-1.7,0.2-3.4,0.3-5.1,0.3c-1.7,0-3.4-0.1-5.1-0.3c-0.8-0.1-1.7-0.2-2.5-0.4l-1.3-0.3l-0.6-0.1c-0.2-0.1-0.3-0.1-0.4-0.2
		c-0.9-0.4-1.6-0.8-2.6-0.8c-0.5,0-1.1,0.2-1.8,0.7C332.7,190,332,190.7,331.3,191.6z"/>
	<path d="M471.4,185c7.2-2.5,14.4-3.8,21.6-4.7c7.2-0.9,14.4-1.3,21.6-1.3c3.6,0,7.2,0.1,10.8,0.3c1.8,0.1,3.6,0.2,5.4,0.4l2.7,0.3
		c1.3,0.1,2.7,0.4,4.2,1c1.4,0.6,2.9,1.6,3.9,2.9c1,1.3,1.7,2.8,1.9,4.2c0.1,0.7,0.2,1.4,0.2,2c0,0.3,0,0.6,0,0.9
		c0,0.3-0.1,0.6-0.1,0.8l-0.5,2.7c-0.8,3.6-1.6,7.2-2.9,10.8c-1.3-3.6-2.2-7.2-2.9-10.8l-0.5-2.7c0-0.3-0.1-0.4-0.1-0.5
		c0-0.1-0.1-0.3-0.1-0.4c-0.1-0.3-0.2-0.5-0.4-0.6c-0.3-0.3-0.5-0.5-0.7-0.5c-0.2,0-0.3,0-0.6,0.1c-0.3,0-0.7,0-1.2,0.2l-2.7,0.3
		c-1.8,0.2-3.6,0.3-5.4,0.4c-3.6,0.2-7.2,0.3-10.8,0.3c-7.2,0-14.4-0.4-21.6-1.3C485.9,188.7,478.6,187.5,471.4,185z"/>
	<path d="M439.3,109.7c-1.5-0.5-2.7-1.9-3.3-3.5c-0.6-1.6-0.8-3.5-0.4-5.2c0.2-0.9,0.5-1.7,0.7-2.4c0.3-0.7,0.5-1.5,0.8-2.3
		c0.6-1.5,1.2-3,2-4.4c2.9-5.8,7.2-10.9,12.2-15.2c5.1-4.3,11.1-7.5,17.5-9.6c6.4-2,13.2-2.9,19.8-2.6l2.5,0.1c0.4,0,0.8,0,1.2,0.1
		l1.2,0.2c1.6,0.2,3.3,0.4,4.9,0.7l4.9,1.2c1.6,0.5,3.2,1.1,4.8,1.6c6.2,2.5,12.1,6.1,16.9,10.8c4.8,4.7,8.5,10.5,10.5,16.7
		c2.1,6.2,2.6,12.8,1.2,18.9c-1.3-6.1-3.5-11.6-6.6-16.4c-3.1-4.8-6.9-8.8-11.4-12.1c-8.8-6.4-19.6-9.6-30.7-9.9
		c-11-0.4-21.9,1.9-31.3,7.8c-4.7,2.9-9.1,6.5-12.9,10.9c-0.5,0.5-1,1.1-1.4,1.6l-1.3,1.7c-0.5,0.6-0.8,1.2-1.3,1.8
		c-0.4,0.6-0.9,1.2-1.2,1.7c-0.6,1.1-1,2.4-1,3.7C437.8,107.1,438.3,108.5,439.3,109.7z"/>
	<path d="M438.7,212c-1.3,0.3-2.7,0.4-4.1-0.1c-1.4-0.5-2.8-1.6-3.5-3.1c-0.4-0.7-0.7-1.5-0.9-2.2c-0.1-0.4-0.2-0.8-0.2-1.2l-0.1-1
		l-0.5-3.9c-0.5-5.3-0.5-10.7,0.2-16.1c0.7-5.4,2.3-10.9,4.8-16c2.5-5.1,5.8-9.8,9.6-13.8c1.9-2.1,3.9-3.9,6-5.7l3.2-2.5
		c1.1-0.8,2.2-1.6,3.3-2.4c4.4-3,9-5.7,13.7-8c4.7-2.3,9.5-4.4,14.4-6.2c4.9-1.8,9.8-3.4,15-4.5c-8,6.9-16.4,12.8-24.4,18.8
		c-2,1.5-4,3-6,4.5c-1,0.8-1.9,1.5-2.9,2.3l-1.5,1.1l-1.4,1.2c-3.8,3.1-7.3,6.3-10.5,9.7c-6.4,6.8-11.1,14.5-14,23.7
		c-1.5,4.5-2.5,9.3-3.5,14.3l-0.7,3.7l-0.2,0.9c0,0.2-0.1,0.5-0.1,0.8c-0.1,0.5-0.1,1,0,1.5c0.1,1,0.5,1.9,1.3,2.7
		C436.3,211.2,437.5,211.6,438.7,212z"/>
	<path d="M617.2,85.4c1.8-0.9,3.6-1.7,5.5-2.2c1.9-0.6,3.9-0.8,5.8-1.1c1-0.1,2-0.3,3-0.3c1,0,2,0,3-0.1c1,0,2,0,3,0
		c1,0.1,2,0.2,3,0.3c8,1,16,4.2,22.6,9.3c6.7,5,11.8,12.1,14.6,19.8c2.8,7.7,3.4,16.2,0.9,23.7c-2.6-7.4-5.5-13.9-9.3-19.5
		c-3.8-5.6-8.3-10.5-13.5-14.5c-5.2-4-11.1-7.2-17.5-9.7c-0.8-0.3-1.6-0.6-2.4-1c-0.8-0.3-1.7-0.5-2.5-0.8c-0.8-0.3-1.7-0.5-2.5-0.8
		c-0.9-0.3-1.7-0.4-2.6-0.7c-1.8-0.4-3.6-1-5.4-1.4C621.1,86.1,619.2,85.8,617.2,85.4z"/>
	<path d="M579.4,87.6c0.6-5.6,1.9-11.1,3.5-16.4c1.7-5.4,3.8-10.6,6.5-15.7c5.4-10.1,12.2-19.1,20-27.3c3.9-4.1,8.1-7.9,12.8-11.4
		c0.6-0.4,1.2-0.9,1.8-1.3c0.6-0.4,1.2-0.9,1.9-1.3c0.7-0.4,1.2-0.8,2-1.2c0.7-0.4,1.5-0.8,2.2-1.1c1.5-0.7,3.1-1.3,4.7-1.7
		c1.6-0.4,3.3-0.7,5-0.7c0.8,0,1.7,0,2.5,0l2.1,0.2c1.4,0.1,2.7,0.2,4.1,0.4c2.7,0.3,5.5,0.6,8.2,1l2.1,0.3c0.5,0.1,0.9,0.2,1.4,0.2
		c0.5,0.1,0.9,0.3,1.3,0.4c1.8,0.7,3.3,2.2,3.9,3.9c0.7,1.7,0.5,3.5-0.1,5c-0.6,1.5-1.7,2.6-3,3.3c1.7-2.3,1.5-5.2,0.1-6.6
		c-0.7-0.7-1.4-1-2.3-1c-0.2,0-0.4,0-0.7,0c-0.2,0-0.5,0.1-0.7,0.1l-2,0.3c-2.7,0.4-5.5,0.7-8.2,1c-1.4,0.2-2.7,0.3-4.1,0.4
		l-2.1,0.2c-0.6,0.1-1,0.1-1.6,0.2c-2,0.4-4,1.3-5.8,2.4c-0.5,0.3-0.9,0.6-1.3,0.9l-1.4,1.1c-0.5,0.4-1,0.8-1.4,1.2
		c-0.5,0.4-1,0.8-1.4,1.2c-3.8,3.3-7.6,7.1-11.2,10.9c-7.3,7.6-14.3,15.6-20.7,24C591,68.9,585.4,78.2,579.4,87.6z"/>
	<path d="M602.8,164.9c2.6,5.7,5.9,9.6,9.7,12.1c3.8,2.5,7.8,3.4,12.2,3.5c4.4-0.1,8.4-1,12.2-3.5c3.8-2.5,7.1-6.5,9.7-12.1
		c2.5,5.8,1.3,13.2-3,18.8c-2.1,2.8-5.1,5.1-8.4,6.6c-3.3,1.5-6.9,2.2-10.4,2.2c-3.5,0-7.1-0.7-10.4-2.2c-3.3-1.5-6.3-3.8-8.4-6.6
		C601.6,178.1,600.3,170.7,602.8,164.9z"/>
</g>
</svg>
